<?xml version="1.0" standalone="no"?>
<!DOCTYPE svg PUBLIC "-//W3C//DTD SVG 1.1//EN" "http://www.w3.org/Graphics/SVG/1.1/DTD/svg11.dtd" >
<svg>
<metadata>
Created by FontForge 20090914 at Sat Aug 17 13:18:13 2013
 By www-data
251 Dutch Design: Albert-Jan Pool, 1995. Published by FontShop International FontFont release 15
</metadata>
<defs>
<font id="DINBek-Regular" horiz-adv-x="522" >
  <font-face 
    font-family="DINBek"
    font-weight="400"
    font-stretch="normal"
    units-per-em="1000"
    panose-1="2 0 5 3 4 0 0 2 0 3"
    ascent="800"
    descent="-200"
    x-height="492"
    cap-height="712"
    bbox="-32 -225.999 1115 985"
    underline-thickness="51"
    underline-position="-89"
    unicode-range="U+0001-U+2122"
  />
<missing-glyph horiz-adv-x="1000" 
 />
    <glyph glyph-name=".notdef" horiz-adv-x="1000" 
 />
    <glyph glyph-name="Eth" horiz-adv-x="687" 
d="M611 356c0 -40.667 -0.5 -73.998 -1.5 -99.998s-3 -48 -6 -66s-7.5 -33.333 -13.5 -46s-13.667 -25.667 -23 -39c-21.333 -30 -49.5 -55 -84.5 -75s-77.167 -30 -126.5 -30h-239v330h-78v59h78v323h245c90 0 158.333 -35.667 205 -107c10 -16 18 -30.667 24 -44
s10.5 -28.833 13.5 -46.5s4.83301 -38.834 5.5 -63.501s1 -56.334 1 -95.001zM535 352.002c0 33.333 -0.332031 61.501 -0.999023 84.501s-2.16699 42.667 -4.5 59s-5.83301 30.333 -10.5 42s-11.334 23.5 -20.001 35.5c-19.333 26 -40.833 44.5 -64.5 55.5
s-52.5 16.5 -86.5 16.5h-154v-256h161v-59h-161v-263h154c70.667 0 122.667 24.667 156 74c7.33301 11.333 13 22.166 17 32.499s7 23 9 38s3.33301 33.5 4 55.5s1 50.333 1 85z" />
    <glyph glyph-name="eth" horiz-adv-x="530" 
d="M465 244c0 -38 -3.66602 -73.668 -10.999 -107.001s-23.666 -62.666 -48.999 -87.999c-16.667 -17.333 -36.667 -30.833 -60 -40.5s-50 -14.5 -80 -14.5s-56.667 4.83301 -80 14.5s-43.333 23.167 -60 40.5c-25.333 25.333 -41.5 54.666 -48.5 87.999s-10.5 69 -10.5 107
c0 37.333 3.66699 72.833 11 106.5s23.333 62.834 48 87.501c31.333 32 72 49.667 122 53c12.667 0.666992 25.5 0.5 38.5 -0.5s25.167 -4.16699 36.5 -9.5l-58 99h-116v52h88l-47 82h75l47 -82h82v-52h-54l63 -111c13.333 -23.333 24.166 -44 32.499 -62
s14.666 -35.5 18.999 -52.5s7.33301 -34.167 9 -51.5s2.5 -37 2.5 -59zM393.001 243.999c0 14 -0.331055 28 -0.998047 42s-2.33398 27.5 -5.00098 40.5s-6.5 25.5 -11.5 37.5s-12.167 22.333 -21.5 31c-24 24 -53.667 36 -89 36c-34.667 0 -64 -12 -88 -36
c-8.66699 -8.66699 -15.667 -19 -21 -31s-9.33301 -24.5 -12 -37.5s-4.33398 -26.5 -5.00098 -40.5s-1 -28 -1 -42c0 -28 2 -55.5 6 -82.5s15 -49.5 33 -67.5c24 -24 53.333 -36 88 -36c35.333 0 65 12 89 36c18 18 29 40.5 33 67.5s6 54.5 6 82.5z" />
    <glyph glyph-name="Lslash" horiz-adv-x="582" 
d="M552 0h-440v289l-73 -46v67l73 46v356h77v-308l154 98v-66l-154 -98v-270h363v-68v0z" />
    <glyph glyph-name="lslash" horiz-adv-x="315" 
d="M226 0c-42.667 0 -74.332 12.5 -94.999 37.5s-31 56.167 -31 93.5v211l-63 -39v62l63 39v308h72v-264l81 50v-62l-81 -50v-252c0 -24 4.66699 -42 14 -54s26.666 -18 51.999 -18h40v-62h-52z" />
    <glyph glyph-name="Scaron" horiz-adv-x="588" 
d="M532 196c0 -31.333 -5.83301 -59.502 -17.5 -84.502s-28.334 -46.167 -50.001 -63.5s-47.5 -30.666 -77.5 -39.999s-63.667 -14 -101 -14c-53.333 0 -99 7.33301 -137 22s-73.667 38.667 -107 72l52 52c29.333 -29.333 59 -49.666 89 -60.999s65 -17 105 -17
c52 0 93 11.5 123 34.5s45 55.5 45 97.5c0 18.667 -2.83301 35.667 -8.5 51s-14.167 28 -25.5 38s-23.166 17.167 -35.499 21.5s-31.5 8.5 -57.5 12.5l-83 13c-56.667 9.33301 -100.334 27.333 -131.001 54c-36 32 -54 76.333 -54 133c0 30 5.33301 57.5 16 82.5
s25.834 46.167 45.501 63.5s43.5 30.833 71.5 40.5s59.667 14.5 95 14.5c45.333 0 84.333 -6.16699 117 -18.5s64.334 -32.166 95.001 -59.499l-49 -49c-22 20 -45.667 35.167 -71 45.5s-57 15.5 -95 15.5c-48 0 -85 -12 -111 -36s-39 -56 -39 -96
c0 -36 10.667 -63.333 32 -82c11.333 -9.33301 25.5 -17.333 42.5 -24s34.833 -11.667 53.5 -15l78 -12c33.333 -4.66699 59.666 -10.834 78.999 -18.501s36.333 -18.167 51 -31.5c40 -34 60 -81 60 -141zM448 933.998l-125 -153h-68l-125 153h69l90 -105l90 105h69v0z" />
    <glyph glyph-name="scaron" horiz-adv-x="496" 
d="M445 144c0 -24 -4.83301 -45.166 -14.5 -63.499s-23.334 -34 -41.001 -47s-38.667 -22.833 -63 -29.5s-51.5 -10 -81.5 -10c-42 0 -79.333 5.33301 -112 16s-62.667 29 -90 55l48 48c19.333 -20.667 42 -35.334 68 -44.001s54.333 -13 85 -13
c40.667 0 72.667 7.16699 96 21.5s35 36.166 35 65.499c0 21.333 -6.5 38 -19.5 50s-33.833 19.333 -62.5 22l-81 7c-48 4 -84.5 16.833 -109.5 38.5s-37.5 52.834 -37.5 93.501c0 22.667 4.5 42.834 13.5 60.501s21.5 32.667 37.5 45s35.167 21.833 57.5 28.5
s46.5 10 72.5 10c35.333 0 68.166 -4.33301 98.499 -13s56.5 -22 78.5 -40l-47 -47c-17.333 13.333 -37.166 23.166 -59.499 29.499s-46.166 9.5 -71.499 9.5c-36 0 -63.333 -7.16699 -82 -21.5s-28 -34.166 -28 -59.499c0 -21.333 6.5 -38 19.5 -50
s35.167 -19.333 66.5 -22l79 -7c21.333 -2 41 -5.66699 59 -11s33.333 -13.333 46 -24s22.5 -23.834 29.5 -39.501s10.5 -35.167 10.5 -58.5zM406 747.001l-125 -153h-68l-125 153h69l90 -105l90 105h69v0z" />
    <glyph glyph-name="Yacute" horiz-adv-x="515" 
d="M506 712l-210 -418v-294h-76v294l-212 418h82l168 -341l166 341h82v0zM382 934l-108 -153h-66l88 153h86v0z" />
    <glyph glyph-name="yacute" horiz-adv-x="446" 
d="M212 -119c-9.33301 -26 -21 -45.333 -35 -58c-13.333 -12.667 -28.333 -21.5 -45 -26.5s-33.667 -7.5 -51 -7.5h-31v64h22c12.667 0 23.167 1 31.5 3s15.5 5.5 21.5 10.5s11.167 11.333 15.5 19s8.5 17.167 12.5 28.5l35 96l-177 482h78l135 -395l134 395h78zM349 747
l-108 -153h-66l88 153h86v0z" />
    <glyph glyph-name="Thorn" horiz-adv-x="642" 
d="M588 359c0 -32 -5.33301 -60.833 -16 -86.5s-25.667 -47.667 -45 -66s-42.5 -32.333 -69.5 -42s-56.833 -14.5 -89.5 -14.5h-189v-150h-76v712h76v-143h189c32.667 0 62.5 -5 89.5 -15s50.167 -24 69.5 -42s34.333 -40 45 -66s16 -55 16 -87zM512 359
c0 47.333 -14 82.668 -42 106.001s-64.333 35 -109 35h-182v-282h182c44.667 0 81 11.667 109 35s42 58.666 42 105.999z" />
    <glyph glyph-name="thorn" horiz-adv-x="546" 
d="M481 246c0 -19.333 -0.833008 -38.6689 -2.5 -58.002s-4.66699 -38.166 -9 -56.499s-10.333 -35.5 -18 -51.5s-17.834 -30.333 -30.501 -43c-13.333 -13.333 -30.333 -23.833 -51 -31.5s-43.667 -11.5 -69 -11.5c-27.333 0 -52.333 4.33301 -75 13s-44 25.667 -64 51
v-278h-72v932h72v-277c20 25.333 41.333 42.166 64 50.499s47.667 12.5 75 12.5c25.333 0 48.333 -3.83301 69 -11.5s37.667 -18.167 51 -31.5c12.667 -12.667 22.834 -27 30.501 -43s13.667 -33.167 18 -51.5s7.33301 -37.166 9 -56.499s2.5 -38.666 2.5 -57.999z
M409 245.997c0 24 -1.33301 47.333 -4 70s-8.33398 42.667 -17.001 60s-21.167 31.333 -37.5 42s-37.833 16 -64.5 16s-48.167 -5.33301 -64.5 -16s-28.833 -24.667 -37.5 -42s-14.5 -37.333 -17.5 -60s-4.5 -46 -4.5 -70s1.5 -47.333 4.5 -70s8.83301 -42.667 17.5 -60
s21.167 -31.333 37.5 -42s37.833 -16 64.5 -16s48.167 5.33301 64.5 16s28.833 24.667 37.5 42s14.334 37.333 17.001 60s4 46 4 70z" />
    <glyph glyph-name="Zcaron" horiz-adv-x="556" 
d="M499 0h-442v72l356 572h-342v68h428v-64l-359 -580h359v-68v0zM443 934l-125 -153h-68l-125 153h69l90 -105l90 105h69v0z" />
    <glyph glyph-name="zcaron" horiz-adv-x="459" 
d="M407 0h-357v62l274 366h-259v64h342v-61l-275 -367h275v-64v0zM396 747l-125 -153h-68l-125 153h69l90 -105l90 105h69v0z" />
    <glyph glyph-name="onehalf" horiz-adv-x="790" 
d="M496 0l-0.000976562 52l165 202c8 10 13.833 19.333 17.5 28s5.5 18.667 5.5 30c0 20 -5.66699 36.167 -17 48.5s-27.333 18.5 -48 18.5c-17.333 0 -32.5 -5 -45.5 -15s-19.5 -27.333 -19.5 -52h-58c0 36 11.5 64.833 34.5 86.5s52.5 32.5 88.5 32.5
s65.5 -10.667 88.5 -32s34.5 -50.333 34.5 -87c0 -18.667 -3.16699 -34.667 -9.5 -48s-16.166 -28 -29.499 -44l-137 -168h176v-52h-246zM220.999 0h-60l333 712h60zM125.999 285v363l-83 -73v66l83 71h57v-427h-57z" />
    <glyph glyph-name="onequarter" horiz-adv-x="777" 
d="M737 64h-47v-64h-56v64h-172v53l151 310h62l-150 -310h109v105h56v-105h47v-53v0zM566 712l-333 -712h-60l333 712h60v0zM183 285h-57v363l-83 -73v66l83 71h57v-427v0z" />
    <glyph glyph-name="onesuperior" horiz-adv-x="261" 
d="M183 285h-57v363l-83 -73v66l83 71h57v-427v0z" />
    <glyph glyph-name="threequarters" horiz-adv-x="822" 
d="M735 64v-64h-56v64h-172v53l151 310h62l-151 -310h110v105h56v-105h47v-53h-47zM285 0h-60l334 712h60zM308 405c0 -20.667 -3.33203 -38.6689 -9.99902 -54.002s-15.834 -28.333 -27.501 -39s-25.334 -18.667 -41.001 -24s-32.5 -8 -50.5 -8
c-16.667 0 -32.834 2.33301 -48.501 7s-29.5 11.834 -41.5 21.501s-21.667 22 -29 37s-11.333 32.833 -12 53.5h58c1.33301 -23.333 9.16602 -40.333 23.499 -51s30.833 -16 49.5 -16c20.667 0 37.834 6.33301 51.501 19s20.5 30.667 20.5 54
c0 22.667 -6.16699 40.5 -18.5 53.5s-31.166 19.5 -56.499 19.5h-9v50h9c23.333 0 40.5 6.16699 51.5 18.5s16.5 28.833 16.5 49.5c0 22.667 -6.5 39.667 -19.5 51s-28.5 17 -46.5 17c-19.333 0 -35 -5.66699 -47 -17s-18.667 -26.666 -20 -45.999h-57
c2 36 14.667 64.167 38 84.5s52 30.5 86 30.5c36 0 65.5 -10.833 88.5 -32.5s34.5 -50.5 34.5 -86.5c0 -23.333 -4.66699 -42.5 -14 -57.5s-22.666 -26.5 -39.999 -34.5c19.333 -8 34.333 -20 45 -36s16 -37.333 16 -64z" />
    <glyph glyph-name="threesuperior" horiz-adv-x="356" 
d="M308 405c0 -20.667 -3.33203 -38.6689 -9.99902 -54.002s-15.834 -28.333 -27.501 -39s-25.334 -18.667 -41.001 -24s-32.5 -8 -50.5 -8c-16.667 0 -32.834 2.33301 -48.501 7s-29.5 11.834 -41.5 21.501s-21.667 22 -29 37s-11.333 32.833 -12 53.5h58
c1.33301 -23.333 9.16602 -40.333 23.499 -51s30.833 -16 49.5 -16c20.667 0 37.834 6.33301 51.501 19s20.5 30.667 20.5 54c0 22.667 -6.16699 40.5 -18.5 53.5s-31.166 19.5 -56.499 19.5h-9v50h9c23.333 0 40.5 6.16699 51.5 18.5s16.5 28.833 16.5 49.5
c0 22.667 -6.5 39.667 -19.5 51s-28.5 17 -46.5 17c-19.333 0 -35 -5.66699 -47 -17s-18.667 -26.666 -20 -45.999h-57c2 36 14.667 64.167 38 84.5s52 30.5 86 30.5c36 0 65.5 -10.833 88.5 -32.5s34.5 -50.5 34.5 -86.5c0 -23.333 -4.66699 -42.5 -14 -57.5
s-22.666 -26.5 -39.999 -34.5c19.333 -8 34.333 -20 45 -36s16 -37.333 16 -64z" />
    <glyph glyph-name="twosuperior" horiz-adv-x="342" 
d="M48 285l-0.000976562 52l165 202c8 10 13.833 19.333 17.5 28s5.5 18.667 5.5 30c0 20 -5.66699 36.167 -17 48.5s-27.333 18.5 -48 18.5c-17.333 0 -32.5 -5 -45.5 -15s-19.5 -27.333 -19.5 -52h-58c0 36 11.5 64.833 34.5 86.5s52.5 32.5 88.5 32.5
s65.5 -10.667 88.5 -32s34.5 -50.333 34.5 -87c0 -18.667 -3.16699 -34.667 -9.5 -48s-16.166 -28 -29.499 -44l-138 -168h177v-52h-246z" />
    <glyph glyph-name="brokenbar" horiz-adv-x="335" 
d="M199 436h-72v350h72v-350v0zM199 -74h-72v350h72v-350v0z" />
    <glyph glyph-name="minus" 
d="M470 236h-418v67h418v-67v0z" />
    <glyph glyph-name="multiply" 
d="M457 119l-45 -45l-151 151l-151 -151l-45 45l151 151l-151 151l45 45l151 -152l151 152l45 -45l-152 -151l152 -151v0z" />
    <glyph glyph-name="space" unicode=" " horiz-adv-x="249" 
 />
    <glyph glyph-name="exclam" unicode="!" horiz-adv-x="316" 
d="M215 712l-11 -512h-62l-10 512h83v0zM216 0h-86v84h86v-84v0z" />
    <glyph glyph-name="quotedbl" unicode="&#x22;" horiz-adv-x="423" 
d="M335 542h-79v170h79v-170v0zM167 542h-79v170h79v-170v0z" />
    <glyph glyph-name="numbersign" unicode="#" horiz-adv-x="653" 
d="M602 432h-96l-23 -141h89v-64h-99l-36 -227h-74l36 227h-160l-35 -227h-74l36 227h-89v64h100l23 141h-92v66h101l34 215h75l-35 -215h159l34 215h73l-34 -215h87v-66v0zM432 432h-159l-23 -141h159l23 141v0z" />
    <glyph glyph-name="dollar" unicode="$" horiz-adv-x="596" 
d="M540 196c0 -28.667 -5.16797 -54.832 -15.501 -78.499s-25 -44.167 -44 -61.5s-41.833 -31.166 -68.5 -41.499s-56.667 -16.5 -90 -18.5v-110h-60v108c-47.333 2 -88 10.333 -122 25s-66.667 37.667 -98 69l52 52c26.667 -26.667 53.5 -45.834 80.5 -57.501
s57.5 -18.167 91.5 -19.5v265l-20 3c-27.333 2.66699 -52.333 9.16699 -75 19.5s-41 21.5 -55 33.5c-36.667 32.667 -55 77 -55 133c0 56.667 17.833 102.834 53.5 138.501s84.834 56.167 147.501 61.5v89h60v-89c38.667 -2 72.334 -9.16699 101.001 -21.5
s57 -30.833 85 -55.5l-49 -49c-19.333 17.333 -39.833 31.166 -61.5 41.499s-47.834 16.5 -78.501 18.5v-259l31 -4c33.333 -5.33301 59.333 -11.833 78 -19.5s35.667 -18.167 51 -31.5c19.333 -16.667 34.333 -36.834 45 -60.501s16 -50.5 16 -80.5zM265.999 651.002
c-42 -3.33301 -74.167 -16.668 -96.5 -40.001s-33.5 -53.666 -33.5 -90.999c0 -36 10.667 -63.333 32 -82c14 -11.333 29.5 -20 46.5 -26s34.167 -10.333 51.5 -13v252zM463.999 194c0 18.667 -2.99902 35.667 -8.99902 51s-14.667 28 -26 38
c-16.667 14.667 -33.834 23.667 -51.501 27s-37.167 6.66602 -58.5 9.99902v-257c45.333 3.33301 80.833 16.333 106.5 39s38.5 53.334 38.5 92.001z" />
    <glyph glyph-name="percent" unicode="%" horiz-adv-x="833" 
d="M769 128c0 -41.333 -12.833 -74.166 -38.5 -98.499s-57.834 -36.5 -96.501 -36.5c-39.333 0 -71.666 12.167 -96.999 36.5s-38 57.166 -38 98.499v105c0 41.333 12.667 74.166 38 98.499s57.666 36.5 96.999 36.5c38.667 0 70.834 -12.167 96.501 -36.5
s38.5 -57.166 38.5 -98.499v-105v0zM712 231c0 26.667 -6.16699 47.8301 -18.5 63.4971s-32.166 23.5 -59.499 23.5c-28 0 -48 -7.66699 -60 -23s-18 -36.666 -18 -63.999v-101c0 -27.333 6 -48.666 18 -63.999s32 -23 60 -23c27.333 0 47.166 7.83301 59.499 23.5
s18.5 36.834 18.5 63.501v101zM280 -0.00390625h-60l334 712h60zM335 478.996c0 -40.667 -12.833 -73.167 -38.5 -97.5s-57.834 -36.5 -96.501 -36.5c-39.333 0 -71.666 12.167 -96.999 36.5s-38 56.833 -38 97.5v105c0 41.333 12.667 74.166 38 98.499
s57.666 36.5 96.999 36.5c38.667 0 70.834 -12.167 96.501 -36.5s38.5 -57.166 38.5 -98.499v-105v0zM278 581.996c0 26.667 -6.16602 47.832 -18.499 63.499s-32.166 23.5 -59.499 23.5c-28 0 -48 -7.66699 -60 -23s-18 -36.666 -18 -63.999v-101
c0 -27.333 6.16699 -48.5 18.5 -63.5s32.166 -22.5 59.499 -22.5s47.166 7.66699 59.499 23s18.5 36.333 18.5 63v101z" />
    <glyph glyph-name="ampersand" unicode="&#x26;" horiz-adv-x="739" 
d="M576 0l-63.9961 77.9951c-7.33301 -6.66699 -17 -14.834 -29 -24.501s-26.667 -18.834 -44 -27.501s-37.333 -16.167 -60 -22.5s-48.334 -9.5 -77.001 -9.5c-34.667 0 -65.834 5 -93.501 15s-51.167 24 -70.5 42s-34.333 39.833 -45 65.5s-16 53.834 -16 84.501
c0 26.667 4.33301 50.334 13 71.001s20.167 39.334 34.5 56.001s30.833 32 49.5 46s37.667 27.333 57 40l-26.5 33c-9 11.333 -17.333 23.333 -25 36s-13.834 26.167 -18.501 40.5s-7 29.5 -7 45.5c0 21.333 3.83301 41 11.5 59s18.5 33.667 32.5 47s30.667 23.833 50 31.5
s40.333 11.5 63 11.5c22 0 42.5 -3.83301 61.5 -11.5s35.5 -18.167 49.5 -31.5s24.833 -29.166 32.5 -47.499s11.5 -38.166 11.5 -59.499c0 -28.667 -7.5 -53.167 -22.5 -73.5s-33.833 -38.166 -56.5 -53.499c-6.66699 -4 -13.334 -8.33301 -20.001 -13
c-5.33301 -4 -11 -8 -17 -12l-16 -11l182 -219c7.33301 11.333 13.5 22.333 18.5 33s9 22.334 12 35.001s5.33301 26.667 7 42s2.5 33 2.5 53h72c-0.666992 -45.333 -6 -86 -16 -122s-26.667 -68 -50 -96l109 -131h-95zM395.004 567.995c0 24 -8 44.166 -24 60.499
s-36 24.5 -60 24.5c-24.667 0 -44.5 -7.83301 -59.5 -23.5s-22.5 -35.5 -22.5 -59.5c0 -16.667 4.83301 -33.167 14.5 -49.5s26.167 -38.833 49.5 -67.5l11.5 7c4.33301 2.66699 8.5 5.66699 12.5 9l14 10c16.667 11.333 31.5 23.833 44.5 37.5s19.5 30.834 19.5 51.501z
M273.004 365.994l-44.998 -31.9971c-14.667 -10.667 -27.667 -22.334 -39 -35.001s-20.5 -26.834 -27.5 -42.501s-10.5 -33.5 -10.5 -53.5c0 -21.333 3.66699 -40.666 11 -57.999s17.666 -32.333 30.999 -45s29.166 -22.334 47.499 -29.001s38.5 -10 60.5 -10
c26.667 0 53.667 4.66699 81 14s56.333 27.666 87 54.999z" />
    <glyph glyph-name="quotesingle" unicode="'" horiz-adv-x="255" 
d="M167 542h-79v170h79v-170v0z" />
    <glyph glyph-name="parenleft" unicode="(" horiz-adv-x="298" 
d="M185 -94l-41 42.5c-11.333 12.333 -21.666 26.833 -30.999 43.5s-15.166 33.667 -17.499 51s-3.5 34.666 -3.5 51.999v522c0 17.333 1.16699 34.666 3.5 51.999s8.16602 34.333 17.499 51s19.666 31.167 30.999 43.5l41 42.5l49 -49l-30.5 -31
c-9 -9.33301 -16.833 -20.666 -23.5 -33.999c-10.667 -21.333 -16 -48.333 -16 -81v-510c0 -32.667 5.33301 -59.667 16 -81c6.66699 -13.333 14.5 -24.666 23.5 -33.999l30.5 -31z" />
    <glyph glyph-name="parenright" unicode=")" horiz-adv-x="298" 
d="M205 95c0 -17.333 -1 -34.666 -3 -51.999s-7.66699 -34.333 -17 -51s-19.666 -31.167 -30.999 -43.5l-41 -42.5l-51 51l31 31c9.33301 9.33301 17.333 20.666 24 33.999c5.33301 10 9 21.667 11 35s3 28 3 44v510c0 16 -1 30.667 -3 44s-5.66699 25 -11 35
c-6.66699 13.333 -14.667 24.666 -24 33.999l-31 31l51 51l41 -42.5c11.333 -12.333 21.666 -26.833 30.999 -43.5s15 -33.667 17 -51s3 -34.666 3 -51.999v-522v0z" />
    <glyph glyph-name="asterisk" unicode="*" horiz-adv-x="474" 
d="M407 472l-28 -49l-117 71l4 -137h-58l4 137l-116 -71l-29 49l120 65l-120 66l29 48l116 -71l-4 137h58l-4 -137l117 71l28 -48l-120 -66l120 -65v0z" />
    <glyph glyph-name="plus" unicode="+" 
d="M470 234h-175v-176h-67v176h-176v67h176v174h67v-174h175v-67v0z" />
    <glyph glyph-name="comma" unicode="," horiz-adv-x="264" 
d="M176 -65l-88 -79v232h88v-153v0z" />
    <glyph glyph-name="hyphen" unicode="-" horiz-adv-x="426" 
d="M350 236h-274v67h274v-67v0z" />
    <glyph glyph-name="period" unicode="." horiz-adv-x="270" 
d="M182 0h-94v94h94v-94v0z" />
    <glyph glyph-name="slash" unicode="/" horiz-adv-x="355" 
d="M356 786l-285 -860h-71l285 860h71v0z" />
    <glyph glyph-name="zero" unicode="0" 
d="M456 190c0 -29.333 -5 -56.166 -15 -80.499s-23.667 -45 -41 -62s-37.833 -30.167 -61.5 -39.5s-49.5 -14 -77.5 -14s-53.833 4.66699 -77.5 14s-44.167 22.5 -61.5 39.5s-31 37.667 -41 62s-15 51.166 -15 80.499v332c0 29.333 5 56.166 15 80.499s23.667 45 41 62
s37.833 30.167 61.5 39.5s49.5 14 77.5 14s53.833 -4.66699 77.5 -14s44.167 -22.5 61.5 -39.5s31 -37.667 41 -62s15 -51.166 15 -80.499v-332v0zM384 518c0 39.333 -10.5 71.833 -31.5 97.5s-51.5 38.5 -91.5 38.5s-70.5 -12.833 -91.5 -38.5s-31.5 -58.167 -31.5 -97.5
v-324c0 -39.333 10.5 -71.833 31.5 -97.5s51.5 -38.5 91.5 -38.5s70.5 12.833 91.5 38.5s31.5 58.167 31.5 97.5v324z" />
    <glyph glyph-name="one" unicode="1" 
d="M330 0h-72v632l-133 -117v82l133 115h72v-712v0z" />
    <glyph glyph-name="two" unicode="2" 
d="M68 0v64.002l281 357c13.333 17.333 23.333 34.333 30 51s10 34.667 10 54c0 38.667 -10.833 69.667 -32.5 93s-52.167 35 -91.5 35c-16.667 0 -32.5 -2.33301 -47.5 -7s-28.167 -12.334 -39.5 -23.001s-20.333 -24 -27 -40s-10 -35.667 -10 -59h-72
c0 28 4.66699 53.833 14 77.5s22.5 44 39.5 61s37.5 30.333 61.5 40s51 14.5 81 14.5c29.333 0 56 -4.5 80 -13.5s44.667 -21.833 62 -38.5s30.666 -36.834 39.999 -60.501s14 -50.167 14 -79.5c0 -28.667 -4.66699 -53.5 -14 -74.5s-23.666 -44.167 -42.999 -69.5
l-249 -318h306v-64h-393z" />
    <glyph glyph-name="three" unicode="3" 
d="M460 194c0 -32.667 -5.49902 -61.501 -16.499 -86.501s-25.833 -46 -44.5 -63s-40.667 -29.833 -66 -38.5s-52.666 -13 -81.999 -13c-28 0 -54.333 3.66699 -79 11s-46.334 18.833 -65.001 34.5s-33.834 35.334 -45.501 59.001s-18.167 51.5 -19.5 83.5h72
c1.33301 -22 6.16602 -40.833 14.499 -56.5s18.666 -28.5 30.999 -38.5s26.5 -17.333 42.5 -22s32.333 -7 49 -7c38.667 0 71.167 12 97.5 36s39.5 58 39.5 102c0 43.333 -11.167 77.166 -33.5 101.499s-57.833 36.5 -106.5 36.5h-15v63h15c44 0 76.167 11.5 96.5 34.5
s30.5 54.5 30.5 94.5c0 42.667 -12 75 -36 97s-53.333 33 -88 33c-38 0 -68 -10.667 -90 -32s-34.667 -50.333 -38 -87h-72c2 28.667 8.5 54.334 19.5 77.001s25.333 41.834 43 57.501s38.334 27.667 62.001 36s48.834 12.5 75.501 12.5c29.333 0 56 -4.66699 80 -14
s44.5 -22.333 61.5 -39s30.333 -36.834 40 -60.501s14.5 -50.167 14.5 -79.5c0 -76 -32 -128.667 -96 -158c72.667 -27.333 109 -85.333 109 -174z" />
    <glyph glyph-name="four" unicode="4" 
d="M482 113h-87v-113h-71v113h-284v65l257 534h77l-257 -534h207v202h71v-202h87v-65v0z" />
    <glyph glyph-name="five" unicode="5" 
d="M462 235c0 -36 -3.16895 -70.166 -9.50195 -102.499s-22.166 -61.166 -47.499 -86.499c-16.667 -16.667 -36.5 -29.667 -59.5 -39s-50.5 -14 -82.5 -14c-31.333 0 -59.166 4.66699 -83.499 14s-44.166 21.666 -59.499 36.999c-15.333 16 -27 34.333 -35 55
s-13 43.667 -15 69h72c4.66699 -36 16.5 -63.5 35.5 -82.5s47.5 -28.5 85.5 -28.5c36.667 0 66 11 88 33c9.33301 9.33301 16.666 19.666 21.999 30.999s9.16602 23.333 11.499 36s3.83301 25.667 4.5 39s1 26.333 1 39c0 22 -1.5 43.333 -4.5 64s-8.66699 39 -17 55
s-20.333 29 -36 39s-36.5 15 -62.5 15c-31.333 0 -57 -6.33301 -77 -19s-33.667 -29.667 -41 -51h-65v374h360v-64h-295v-226c14 15.333 31.833 27.333 53.5 36s46.5 13 74.5 13c26.667 0 50.334 -4 71.001 -12s38 -19 52 -33c13.333 -12.667 23.833 -26.667 31.5 -42
s13.5 -31.333 17.5 -48s6.66699 -33.5 8 -50.5s2 -33.833 2 -50.5z" />
    <glyph glyph-name="six" unicode="6" 
d="M460 205c0 -30 -4.66602 -57.999 -13.999 -83.999s-22.5 -48.333 -39.5 -67s-37.667 -33.334 -62 -44.001s-51.5 -16 -81.5 -16s-57.333 4.83301 -82 14.5s-45.5 23.5 -62.5 41.5s-30.167 39.667 -39.5 65s-14 53.333 -14 84c0 25.333 3.66699 50.833 11 76.5
s18.666 53.5 33.999 83.5l175 353h74l-159 -320c22 10 47 15 75 15s53.333 -5 76 -15s42 -24 58 -42s28.5 -39.333 37.5 -64s13.5 -51.667 13.5 -81zM388.001 202.001c0 20 -2.66504 38.667 -7.99805 56s-13.333 32.5 -24 45.5s-23.834 23.333 -39.501 31
s-33.834 11.5 -54.501 11.5c-38 0 -68.333 -13 -91 -39s-34 -61 -34 -105s11.333 -79 34 -105s53 -39 91 -39s68.5 13 91.5 39s34.5 61 34.5 105z" />
    <glyph glyph-name="seven" unicode="7" 
d="M471 648l-247 -648h-76l247 648h-248v-112h-71v176h395v-64v0z" />
    <glyph glyph-name="eight" unicode="8" 
d="M471 196c0 -30 -5.33496 -57.333 -16.002 -82s-25.5 -46 -44.5 -64s-41.333 -31.833 -67 -41.5s-53.167 -14.5 -82.5 -14.5s-56.833 4.83301 -82.5 14.5s-48 23.5 -67 41.5s-33.833 39.333 -44.5 64s-16 52 -16 82c0 42 10.333 77 31 105s46 50.667 76 68
c-28 16 -50.5 37 -67.5 63s-25.5 57.667 -25.5 95c0 28 4.83301 53.667 14.5 77s23.334 43.5 41.001 60.5s38.5 30.167 62.5 39.5s50 14 78 14s54 -4.66699 78 -14s44.833 -22.5 62.5 -39.5s31.334 -37.167 41.001 -60.5s14.5 -49 14.5 -77c0 -37.333 -8.33301 -69 -25 -95
s-39 -47 -67 -63c30 -17.333 55.167 -40 75.5 -68s30.5 -63 30.5 -105zM384.998 526c0 37.333 -11.5 68 -34.5 92s-52.833 36 -89.5 36s-66.5 -12 -89.5 -36s-34.5 -54.667 -34.5 -92c0 -38 11.5 -68.667 34.5 -92s52.833 -35 89.5 -35s66.5 11.667 89.5 35s34.5 54 34.5 92
zM398.998 197c0 20 -3.5 38.333 -10.5 55s-16.667 31.334 -29 44.001s-27 22.5 -44 29.5s-35.167 10.5 -54.5 10.5s-37.5 -3.5 -54.5 -10.5s-31.667 -16.833 -44 -29.5s-22 -27.334 -29 -44.001s-10.5 -35 -10.5 -55s3.5 -38.333 10.5 -55s16.667 -31.334 29 -44.001
s27 -22.5 44 -29.5s35.167 -10.5 54.5 -10.5s37.5 3.5 54.5 10.5s31.667 16.833 44 29.5s22 27.334 29 44.001s10.5 35 10.5 55z" />
    <glyph glyph-name="nine" unicode="9" 
d="M457 513c0 -25.333 -3.66797 -50.834 -11.001 -76.501s-18.666 -53.5 -33.999 -83.5l-175 -353h-75l160 320c-22 -10 -47.333 -15 -76 -15c-28 0 -53.333 5 -76 15s-42 24 -58 42s-28.333 39.333 -37 64s-13 51.667 -13 81c0 30 4.66699 58 14 84s22.5 48.333 39.5 67
s37.667 33.334 62 44.001s51.5 16 81.5 16s57.333 -4.83301 82 -14.5s45.5 -23.5 62.5 -41.5s30.167 -39.667 39.5 -65s14 -53.333 14 -84zM384.999 509.999c0 44 -11.5 79 -34.5 105s-53.5 39 -91.5 39s-68.333 -13 -91 -39s-34 -61 -34 -105c0 -20 2.66699 -38.667 8 -56
s13.333 -32.5 24 -45.5s23.667 -23.333 39 -31s33.333 -11.5 54 -11.5c38 0 68.5 13 91.5 39s34.5 61 34.5 105z" />
    <glyph glyph-name="colon" unicode=":" horiz-adv-x="297" 
d="M209 301h-94v94h94v-94v0zM209 0h-94v94h94v-94v0z" />
    <glyph glyph-name="semicolon" unicode=";" horiz-adv-x="297" 
d="M209 301h-94v94h94v-94v0zM205 -65l-88 -79v232h88v-153v0z" />
    <glyph glyph-name="less" unicode="&#x3c;" horiz-adv-x="1027" 
d="M972 234h-789l365 -364h-94l-399 399l399 399h94l-365 -364h789v-70v0z" />
    <glyph glyph-name="equal" unicode="=" 
d="M470 320h-418v67h418v-67v0zM470 151h-418v66h418v-66v0z" />
    <glyph glyph-name="greater" unicode="&#x3e;" horiz-adv-x="1027" 
d="M972 269l-399 -399h-94l365 364h-789v70h789l-365 364h94l399 -399v0z" />
    <glyph glyph-name="question" unicode="?" horiz-adv-x="497" 
d="M451 536c0 -23.333 -4.16797 -44.499 -12.501 -63.499s-19.166 -38.167 -32.499 -57.5l-82 -118c-6 -9.33301 -10.5 -19.333 -13.5 -30s-4.5 -20 -4.5 -28v-39h-72v40c0 19.333 2.5 36 7.5 50s12.833 28.667 23.5 44l81 117c9.33301 14 17.166 27.333 23.499 40
s9.5 27.667 9.5 45c0 34 -10.667 62.167 -32 84.5s-49 33.5 -83 33.5c-18 0 -34.167 -3.16699 -48.5 -9.5s-26.5 -15 -36.5 -26s-17.667 -23.667 -23 -38s-8 -29.5 -8 -45.5h-72c0 25.333 4.66699 49.166 14 71.499s22.5 41.833 39.5 58.5s37 29.667 60 39
s47.833 14 74.5 14c26 0 50.5 -4.5 73.5 -13.5s42.833 -21.5 59.5 -37.5s29.834 -35.167 39.501 -57.5s14.5 -46.833 14.5 -73.5zM226.999 0.000976562v84h86v-84h-86z" />
    <glyph glyph-name="at" unicode="@" horiz-adv-x="713" 
d="M572 0l0.00390625 54.9971c-16.667 -21.333 -35.5 -37 -56.5 -47s-46.833 -15 -77.5 -15c-28 0 -53.833 5.33301 -77.5 16s-43.167 25.667 -58.5 45c-16.667 21.333 -28.167 46 -34.5 74s-9.5 64.667 -9.5 110c0 44 3 80.333 9 109s16.667 53.334 32 74.001
c14.667 19.333 34 34.5 58 45.5s50.667 16.5 80 16.5s54.666 -5.16699 75.999 -15.5s40.666 -26.166 57.999 -47.499v78c0 26.667 -2.83301 48.5 -8.5 65.5s-15.834 33.167 -30.501 48.5c-14 14 -30.167 24.167 -48.5 30.5s-39.166 9.5 -62.499 9.5h-130
c-23.333 0 -43.666 -3 -60.999 -9s-33.333 -16.333 -48 -31c-15.333 -15.333 -25.833 -31.166 -31.5 -47.499s-8.5 -38.5 -8.5 -66.5v-337c0 -16 0.833008 -29.667 2.5 -41s4.66699 -21.5 9 -30.5s10.166 -17.333 17.499 -25s16.666 -15.834 27.999 -24.501l-49 -49
c-15.333 11.333 -28 22.333 -38 33s-18 22.334 -24 35.001s-10.167 27.167 -12.5 43.5s-3.5 35.5 -3.5 57.5v336c0 69.333 18.667 123 56 161c36.667 37.333 88 56 154 56h148c65.333 0 116.666 -18.667 153.999 -56c38 -38 57 -91.667 57 -161v-497zM571.004 237.997
c0 23.333 -1.33301 46 -4 68s-8.33398 41.5 -17.001 58.5s-21 30.667 -37 41s-37 15.5 -63 15.5s-47 -5.16699 -63 -15.5s-28.333 -24 -37 -41s-14.334 -36.5 -17.001 -58.5s-4 -44.667 -4 -68s1.33301 -46 4 -68s8.33398 -41.5 17.001 -58.5s21 -30.667 37 -41
s37 -15.5 63 -15.5s47 5.16699 63 15.5s28.333 24 37 41s14.334 36.5 17.001 58.5s4 44.667 4 68z" />
    <glyph glyph-name="A" unicode="A" horiz-adv-x="611" 
d="M599 0h-81l-57 161h-311l-57 -161h-81l262 712h64l261 -712v0zM439 227l-132 376l-134 -376h266v0z" />
    <glyph glyph-name="B" unicode="B" horiz-adv-x="668" 
d="M592 197c0 -32 -5.16602 -60.332 -15.499 -84.999s-24.833 -45.334 -43.5 -62.001s-41 -29.167 -67 -37.5s-54.667 -12.5 -86 -12.5h-277v712h268c31.333 0 59.833 -4.33301 85.5 -13s47.667 -21.167 66 -37.5s32.666 -36.166 42.999 -59.499s15.5 -50 15.5 -80
c0 -38 -10 -70.667 -30 -98s-45 -46.666 -75 -57.999c34 -12.667 61.833 -33.334 83.5 -62.001s32.5 -64.334 32.5 -107.001zM505.001 521.001c0 21.333 -3.66699 39.667 -11 55s-17.166 28 -29.499 38s-27 17.5 -44 22.5s-35.5 7.5 -55.5 7.5h-186v-247h186
c20 0 38.5 2.5 55.5 7.5s31.667 12.5 44 22.5s22.166 22.833 29.499 38.5s11 34.167 11 55.5zM516.001 199.002c0 40 -12.833 71.667 -38.5 95s-60.5 35 -104.5 35h-194v-261h194c44 0 78.833 11.833 104.5 35.5s38.5 55.5 38.5 95.5z" />
    <glyph glyph-name="C" unicode="C" horiz-adv-x="637" 
d="M572 206c-6 -33.333 -16.168 -63.166 -30.501 -89.499s-32.333 -48.5 -54 -66.5s-46.167 -31.833 -73.5 -41.5s-57 -14.5 -89 -14.5c-35.333 0 -68.5 6.33301 -99.5 19s-58.5 31 -82.5 55c-16.667 16.667 -29.5 34 -38.5 52s-15.667 38.167 -20 60.5
s-6.83301 47.666 -7.5 75.999s-1 61.5 -1 99.5s0.333008 71.167 1 99.5s3.16699 53.666 7.5 75.999s11 42.5 20 60.5s21.833 35.333 38.5 52c24 24 51.5 42.333 82.5 55s64.167 19 99.5 19c32 0 61.667 -4.83301 89 -14.5s51.833 -23.5 73.5 -41.5s39.667 -40.167 54 -66.5
s24.5 -56.166 30.5 -89.499h-78c-9.33301 44 -28.666 79 -57.999 105s-66.333 39 -111 39c-23.333 0 -45.833 -4.33301 -67.5 -13s-40.167 -21 -55.5 -37c-11.333 -11.333 -20.333 -23.5 -27 -36.5s-11.667 -28.667 -15 -47s-5.5 -40.333 -6.5 -66s-1.5 -57.167 -1.5 -94.5
s0.5 -68.833 1.5 -94.5s3.16699 -47.667 6.5 -66s8.33301 -34 15 -47s15.667 -25.167 27 -36.5c15.333 -16 33.833 -28.333 55.5 -37s44.167 -13 67.5 -13c44.667 0 82 13 112 39s49.667 61 59 105h76v0z" />
    <glyph glyph-name="D" unicode="D" horiz-adv-x="673" 
d="M597 364c0 -24.667 -0.166992 -50.6699 -0.5 -78.0029s-2.5 -54.166 -6.5 -80.499s-10.833 -51.5 -20.5 -75.5s-23.834 -45.333 -42.501 -64c-21.333 -21.333 -47.333 -37.666 -78 -48.999s-64.667 -17 -102 -17h-244v712h244c37.333 0 71.333 -5.66699 102 -17
s56.667 -27.666 78 -48.999c18.667 -18.667 32.834 -39.167 42.501 -61.5s16.5 -45.666 20.5 -69.999s6.16699 -49.333 6.5 -75s0.5 -50.834 0.5 -75.501zM521 363.997c0 22 -0.166992 43.832 -0.5 65.499s-1.83301 42.334 -4.5 62.001s-7.33398 38.167 -14.001 55.5
s-16 32.333 -28 45c-18.667 19.333 -39.667 32.833 -63 40.5s-49 11.5 -77 11.5h-155v-576h155c28 0 53.667 3.83301 77 11.5s44.333 21.167 63 40.5c12 12.667 21.333 28.5 28 47.5s11.334 39.333 14.001 61s4.16699 44.167 4.5 67.5s0.5 46 0.5 68z" />
    <glyph glyph-name="E" unicode="E" horiz-adv-x="600" 
d="M545 0h-442v712h442v-68h-366v-251h312v-68h-312v-257h366v-68v0z" />
    <glyph glyph-name="F" unicode="F" horiz-adv-x="580" 
d="M545 644h-366v-262h312v-68h-312v-314h-76v712h442v-68v0z" />
    <glyph glyph-name="G" unicode="G" horiz-adv-x="650" 
d="M576 260c0 -41.333 -4.66797 -76.4971 -14.001 -105.497s-25 -55.167 -47 -78.5c-25.333 -27.333 -54.166 -47.833 -86.499 -61.5s-66.833 -20.5 -103.5 -20.5c-35.333 0 -68.5 6.33301 -99.5 19s-58.5 31 -82.5 55c-16.667 16.667 -29.5 34 -38.5 52
s-15.667 38.167 -20 60.5s-6.83301 47.666 -7.5 75.999s-1 61.5 -1 99.5s0.333008 71.167 1 99.5s3.16699 53.666 7.5 75.999s11 42.5 20 60.5s21.833 35.333 38.5 52c49.333 49.333 110 74 182 74c34 0 65.167 -5.16699 93.5 -15.5s53.166 -25 74.499 -44
s38.833 -41.5 52.5 -67.5s23.167 -54.667 28.5 -86h-76c-10 45.333 -30.167 80.833 -60.5 106.5s-67.833 38.5 -112.5 38.5c-23.333 0 -45.833 -4.5 -67.5 -13.5s-40.167 -21.5 -55.5 -37.5c-11.333 -11.333 -20.333 -23.5 -27 -36.5s-11.667 -28.5 -15 -46.5
s-5.5 -39.833 -6.5 -65.5s-1.5 -57.167 -1.5 -94.5s0.5 -68.833 1.5 -94.5s3.16699 -47.667 6.5 -66s8.33301 -34 15 -47s15.667 -25.167 27 -36.5c15.333 -16 33.833 -28.333 55.5 -37s44.167 -13 67.5 -13c26 0 50.833 5.16699 74.5 15.5s43.834 25.5 60.501 45.5
c14.667 17.333 25 36.166 31 56.499s9 44.5 9 72.5v54h-175v67h251v-113v0z" />
    <glyph glyph-name="H" unicode="H" horiz-adv-x="696" 
d="M593 0h-76v325h-338v-325h-76v712h76v-319h338v319h76v-712v0z" />
    <glyph glyph-name="I" unicode="I" horiz-adv-x="282" 
d="M179 0h-76v712h76v-712v0z" />
    <glyph glyph-name="J" unicode="J" horiz-adv-x="501" 
d="M408 216c0 -34 -5.5 -64.833 -16.5 -92.5s-26.333 -51 -46 -70s-43 -33.667 -70 -44s-56.833 -15.5 -89.5 -15.5c-34 0 -64.167 5.16699 -90.5 15.5s-50.5 26.5 -72.5 48.5l51 51c6.66699 -6.66699 13.5 -12.834 20.5 -18.501s14.833 -10.667 23.5 -15
s18.5 -7.66602 29.5 -9.99902s23.833 -3.5 38.5 -3.5c46.667 0 82.667 14.167 108 42.5s38 68.833 38 121.5v486h76v-496v0z" />
    <glyph glyph-name="K" unicode="K" horiz-adv-x="650" 
d="M636 0h-90l-217 379l-150 -180v-199h-76v712h76v-409l332 409h93l-224 -275l256 -437v0z" />
    <glyph glyph-name="L" unicode="L" horiz-adv-x="573" 
d="M543 0h-440v712h76v-644h364v-68v0z" />
    <glyph glyph-name="M" unicode="M" horiz-adv-x="816" 
d="M713 0h-76v541l-195 -429h-65l-198 429v-541h-76v712h76l232 -505l226 505h76v-712v0z" />
    <glyph glyph-name="N" unicode="N" horiz-adv-x="732" 
d="M629 0h-72l-378 571v-571h-76v712h72l378 -569v569h76v-712v0z" />
    <glyph glyph-name="O" unicode="O" horiz-adv-x="650" 
d="M574 356c0 -38 -0.333008 -71.167 -1 -99.5s-3.16699 -53.666 -7.5 -75.999s-11 -42.5 -20 -60.5s-21.833 -35.333 -38.5 -52c-24 -24 -51.333 -42.333 -82 -55s-64 -19 -100 -19c-72 0 -132.667 24.667 -182 74c-16.667 16.667 -29.5 34 -38.5 52
s-15.667 38.167 -20 60.5s-6.83301 47.666 -7.5 75.999s-1 61.5 -1 99.5s0.333008 71.167 1 99.5s3.16699 53.666 7.5 75.999s11 42.5 20 60.5s21.833 35.333 38.5 52c49.333 49.333 110 74 182 74s132.667 -24.667 182 -74c16.667 -16.667 29.5 -34 38.5 -52
s15.667 -38.167 20 -60.5s6.83301 -47.666 7.5 -75.999s1 -61.5 1 -99.5zM498 356c0 37.333 -0.5 68.833 -1.5 94.5s-3.16699 47.5 -6.5 65.5s-8.33301 33.5 -15 46.5s-15.667 25.167 -27 36.5c-15.333 16 -33.833 28.5 -55.5 37.5s-44.167 13.5 -67.5 13.5
s-45.833 -4.5 -67.5 -13.5s-40.167 -21.5 -55.5 -37.5c-11.333 -11.333 -20.333 -23.5 -27 -36.5s-11.667 -28.5 -15 -46.5s-5.5 -39.833 -6.5 -65.5s-1.5 -57.167 -1.5 -94.5s0.5 -68.833 1.5 -94.5s3.16699 -47.5 6.5 -65.5s8.33301 -33.5 15 -46.5
s15.667 -25.167 27 -36.5c15.333 -16 33.833 -28.5 55.5 -37.5s44.167 -13.5 67.5 -13.5s45.833 4.5 67.5 13.5s40.167 21.5 55.5 37.5c11.333 11.333 20.333 23.5 27 36.5s11.667 28.5 15 46.5s5.5 39.833 6.5 65.5s1.5 57.167 1.5 94.5z" />
    <glyph glyph-name="P" unicode="P" horiz-adv-x="630" 
d="M588 503c0 -32 -5.33301 -61 -16 -87s-25.667 -48 -45 -66s-42.5 -32 -69.5 -42s-56.833 -15 -89.5 -15h-189v-293h-76v712h265c32.667 0 62.5 -4.83301 89.5 -14.5s50.167 -23.667 69.5 -42s34.333 -40.333 45 -66s16 -54.5 16 -86.5zM512 503
c0 47.333 -14 82.667 -42 106s-64.333 35 -109 35h-182v-283h182c44.667 0 81 11.833 109 35.5s42 59.167 42 106.5z" />
    <glyph glyph-name="Q" unicode="Q" horiz-adv-x="649" 
d="M557 -35l-79 79.001c-43.333 -33.333 -94.333 -50 -153 -50c-72 0 -132.667 24.667 -182 74c-16.667 16.667 -29.5 34 -38.5 52s-15.667 38.167 -20 60.5s-6.83301 47.666 -7.5 75.999s-1 61.5 -1 99.5s0.333008 71.167 1 99.5s3.16699 53.666 7.5 75.999
s11 42.5 20 60.5s21.833 35.333 38.5 52c49.333 49.333 110 74 182 74s132.667 -24.667 182 -74c16.667 -16.667 29.5 -34 38.5 -52s15.667 -38.167 20 -60.5s6.83301 -47.666 7.5 -75.999s1 -61.5 1 -99.5c0 -34 -0.333008 -64.167 -1 -90.5s-2.5 -50 -5.5 -71
s-7.83301 -40 -14.5 -57s-16 -33.167 -28 -48.5l78 -78zM498 356.001c0 37.333 -0.500977 68.8311 -1.50098 94.498s-3.16699 47.5 -6.5 65.5s-8.33301 33.5 -15 46.5s-15.667 25.167 -27 36.5c-15.333 16 -33.833 28.5 -55.5 37.5s-44.167 13.5 -67.5 13.5
s-45.833 -4.5 -67.5 -13.5s-40.167 -21.5 -55.5 -37.5c-11.333 -11.333 -20.333 -23.5 -27 -36.5s-11.667 -28.5 -15 -46.5s-5.5 -39.833 -6.5 -65.5s-1.5 -57.167 -1.5 -94.5s0.5 -68.833 1.5 -94.5s3.16699 -47.5 6.5 -65.5s8.33301 -33.5 15 -46.5
s15.667 -25.167 27 -36.5c15.333 -16 33.833 -28.5 55.5 -37.5s44.167 -13.5 67.5 -13.5c37.333 0 71 11.333 101 34l-90 90l46 46l87 -87c6.66699 10.667 11.834 22.334 15.501 35.001s6.5 27.167 8.5 43.5s3.33301 35.333 4 57s1 46.834 1 75.501z" />
    <glyph glyph-name="R" unicode="R" horiz-adv-x="656" 
d="M512 0l-162.001 316.001h-171v-316h-76v712h273c31.333 0 59.833 -4.5 85.5 -13.5s47.834 -22 66.501 -39s33.167 -37.833 43.5 -62.5s15.5 -52.334 15.5 -83.001c0 -52 -14.333 -94.5 -43 -127.5s-66 -54.167 -112 -63.5l169 -323h-89zM510.999 513.001
c0 44 -13.167 76.833 -39.5 98.5s-60.5 32.5 -102.5 32.5h-190v-261h190c42 0 76.167 10.667 102.5 32s39.5 54 39.5 98z" />
    <glyph glyph-name="S" unicode="S" horiz-adv-x="588" 
d="M532 196c0 -31.333 -5.83301 -59.502 -17.5 -84.502s-28.334 -46.167 -50.001 -63.5s-47.5 -30.666 -77.5 -39.999s-63.667 -14 -101 -14c-53.333 0 -99 7.33301 -137 22s-73.667 38.667 -107 72l52 52c29.333 -29.333 59 -49.666 89 -60.999s65 -17 105 -17
c52 0 93 11.5 123 34.5s45 55.5 45 97.5c0 18.667 -2.83301 35.667 -8.5 51s-14.167 28 -25.5 38s-23.166 17.167 -35.499 21.5s-31.5 8.5 -57.5 12.5l-83 13c-56.667 9.33301 -100.334 27.333 -131.001 54c-36 32 -54 76.333 -54 133c0 30 5.33301 57.5 16 82.5
s25.834 46.167 45.501 63.5s43.5 30.833 71.5 40.5s59.667 14.5 95 14.5c45.333 0 84.333 -6.16699 117 -18.5s64.334 -32.166 95.001 -59.499l-49 -49c-22 20 -45.667 35.167 -71 45.5s-57 15.5 -95 15.5c-48 0 -85 -12 -111 -36s-39 -56 -39 -96
c0 -36 10.667 -63.333 32 -82c11.333 -9.33301 25.5 -17.333 42.5 -24s34.833 -11.667 53.5 -15l78 -12c33.333 -4.66699 59.666 -10.834 78.999 -18.501s36.333 -18.167 51 -31.5c40 -34 60 -81 60 -141z" />
    <glyph glyph-name="T" unicode="T" horiz-adv-x="548" 
d="M518 644h-206v-644h-76v644h-206v68h488v-68v0z" />
    <glyph glyph-name="U" unicode="U" horiz-adv-x="683" 
d="M590 235c0 -35.333 -6.16895 -67.833 -18.502 -97.5s-29.666 -55.167 -51.999 -76.5s-48.666 -37.833 -78.999 -49.5s-63.5 -17.5 -99.5 -17.5s-69.167 5.83301 -99.5 17.5s-56.5 28.167 -78.5 49.5s-39.167 46.833 -51.5 76.5s-18.5 62.167 -18.5 97.5v477h76v-471
c0 -26.667 4.16699 -51.167 12.5 -73.5s20 -41.166 35 -56.499s33 -27.333 54 -36s44.5 -13 70.5 -13s49.667 4.33301 71 13s39.5 20.667 54.5 36s26.667 34.166 35 56.499s12.5 46.833 12.5 73.5v471h76v-477v0z" />
    <glyph glyph-name="V" unicode="V" horiz-adv-x="546" 
d="M538 712l-234 -712h-62l-234 712h80l185 -576l185 576h80v0z" />
    <glyph glyph-name="W" unicode="W" horiz-adv-x="854" 
d="M838 712l-182 -712h-71l-158 570l-158 -570h-71l-182 712h81l139 -574l157 574h68l157 -574l139 574h81v0z" />
    <glyph glyph-name="X" unicode="X" horiz-adv-x="551" 
d="M536 0h-88l-173 299l-174 -299h-86l218 365l-204 347h88l158 -281l158 281h88l-205 -347l220 -365v0z" />
    <glyph glyph-name="Y" unicode="Y" horiz-adv-x="514" 
d="M506 712l-210 -418v-294h-76v294l-212 418h82l168 -341l166 341h82v0z" />
    <glyph glyph-name="Z" unicode="Z" horiz-adv-x="556" 
d="M499 0h-442v72l356 572h-342v68h428v-64l-359 -580h359v-68v0z" />
    <glyph glyph-name="bracketleft" unicode="[" horiz-adv-x="313" 
d="M269 -74h-177v860h177v-64h-105v-732h105v-64v0z" />
    <glyph glyph-name="backslash" unicode="\" horiz-adv-x="355" 
d="M355 -74h-71l-284 857h71l284 -857v0z" />
    <glyph glyph-name="bracketright" unicode="]" horiz-adv-x="313" 
d="M221 -74h-177v62h108v736h-108v62h177v-860v0z" />
    <glyph glyph-name="asciicircum" unicode="^" horiz-adv-x="537" 
d="M465 413h-74l-122 228l-123 -228h-74l164 305h66l163 -305v0z" />
    <glyph glyph-name="underscore" unicode="_" horiz-adv-x="537" 
d="M537 -165h-537v51h537v-51v0z" />
    <glyph glyph-name="grave" unicode="`" horiz-adv-x="500" 
d="M299 594h-66l-108 153h86l88 -153v0z" />
    <glyph glyph-name="a" unicode="a" horiz-adv-x="526" 
d="M369 0l-0.000976562 47c-10 -10 -20 -18.333 -30 -25s-20.5 -12.167 -31.5 -16.5s-23 -7.33301 -36 -9s-27.833 -2.5 -44.5 -2.5c-34 0 -61.833 3.5 -83.5 10.5s-40.167 18.5 -55.5 34.5c-12 12 -21.167 26.833 -27.5 44.5s-9.5 36.167 -9.5 55.5
c0 43.333 14.5 77.833 43.5 103.5s71.167 38.5 126.5 38.5h148v47c0 36 -9.66699 63 -29 81s-51.666 27 -96.999 27c-32 0 -57 -4.16699 -75 -12.5s-34.333 -22.833 -49 -43.5l-49 45c22 28.667 46.5 48 73.5 58s60.5 15 100.5 15c66.667 0 116.167 -13.833 148.5 -41.5
s48.5 -68.5 48.5 -122.5v-334h-72zM368.999 227l-137.998 0.00195312c-73.333 0 -110 -29 -110 -87c0 -28.667 9 -49.834 27 -63.501s46.667 -20.5 86 -20.5c21.333 0 41.166 1.66699 59.499 5s35.166 12.666 50.499 27.999c16.667 16 25 44.333 25 85v53z" />
    <glyph glyph-name="b" unicode="b" horiz-adv-x="545" 
d="M481 246c0 -19.333 -0.833008 -38.6689 -2.5 -58.002s-4.66699 -38.166 -9 -56.499s-10.333 -35.5 -18 -51.5s-17.834 -30.333 -30.501 -43c-13.333 -13.333 -30.333 -23.833 -51 -31.5s-43.667 -11.5 -69 -11.5c-27.333 0 -52.333 4.33301 -75 13s-44 26 -64 52v-59h-72
v712h72v-277c20 25.333 41.333 42.166 64 50.499s47.667 12.5 75 12.5c25.333 0 48.333 -3.83301 69 -11.5s37.667 -18.167 51 -31.5c12.667 -12.667 22.834 -27 30.501 -43s13.667 -33.167 18 -51.5s7.33301 -37.166 9 -56.499s2.5 -38.666 2.5 -57.999zM409 245.997
c0 24 -1.33301 47.333 -4 70s-8.33398 42.667 -17.001 60s-21.167 31.333 -37.5 42s-37.833 16 -64.5 16s-48.167 -5.33301 -64.5 -16s-28.833 -24.667 -37.5 -42s-14.5 -37.333 -17.5 -60s-4.5 -46 -4.5 -70s1.5 -47.333 4.5 -70s8.83301 -42.667 17.5 -60
s21.167 -31.333 37.5 -42s37.833 -16 64.5 -16s48.167 5.33301 64.5 16s28.833 24.667 37.5 42s14.334 37.333 17.001 60s4 46 4 70z" />
    <glyph glyph-name="c" unicode="c" horiz-adv-x="490" 
d="M443 67c-25.333 -27.333 -50.166 -46.335 -74.499 -57.002s-53.5 -16 -87.5 -16c-30.667 0 -59.334 5.33301 -86.001 16s-49.834 26.5 -69.501 47.5s-35 47.167 -46 78.5s-16.5 68 -16.5 110s5.5 78.833 16.5 110.5s26.333 58 46 79s42.834 36.667 69.501 47
s55.334 15.5 86.001 15.5c34 0 63.167 -5.33301 87.5 -16s49.166 -29.667 74.499 -57l-49 -46c-18.667 20.667 -36.334 35 -53.001 43s-36.667 12 -60 12c-24 0 -45.667 -4.66699 -65 -14s-35.666 -23.333 -48.999 -42c-11.333 -16 -19.5 -34.167 -24.5 -54.5
s-7.5 -46.166 -7.5 -77.499s2.5 -57.166 7.5 -77.499s13.167 -38.5 24.5 -54.5c13.333 -18.667 29.666 -32.667 48.999 -42s41 -14 65 -14c23.333 0 43.333 4.16699 60 12.5s34.334 22.833 53.001 43.5l49 -47v0z" />
    <glyph glyph-name="d" unicode="d" horiz-adv-x="545" 
d="M384 0v59.0029c-20 -26 -41.5 -43.333 -64.5 -52s-48.167 -13 -75.5 -13c-25.333 0 -48.333 3.83301 -69 11.5s-37.667 18.167 -51 31.5c-12.667 12.667 -22.834 27 -30.501 43s-13.667 33.167 -18 51.5s-7.33301 37.166 -9 56.499s-2.5 38.666 -2.5 57.999
s0.833008 38.666 2.5 57.999s4.66699 38.166 9 56.499s10.333 35.5 18 51.5s17.834 30.333 30.501 43c13.333 13.333 30.333 23.833 51 31.5s43.667 11.5 69 11.5c27.333 0 52.333 -4.16699 75 -12.5s44 -25.166 64 -50.499v277h72v-712h-71zM383 246.003
c0 24 -1.33301 47.333 -4 70s-8.33398 42.667 -17.001 60s-21.167 31.333 -37.5 42s-37.833 16 -64.5 16s-48.167 -5.33301 -64.5 -16s-28.833 -24.667 -37.5 -42s-14.5 -37.333 -17.5 -60s-4.5 -46 -4.5 -70s1.5 -47.333 4.5 -70s8.83301 -42.667 17.5 -60
s21.167 -31.333 37.5 -42s37.833 -16 64.5 -16s48.167 5.33301 64.5 16s28.833 24.667 37.5 42s14.334 37.333 17.001 60s4 46 4 70z" />
    <glyph glyph-name="e" unicode="e" horiz-adv-x="530" 
d="M135 227c0 -54 12.333 -95.8359 37 -125.503s60.667 -44.5 108 -44.5c28.667 0 52.5 4.5 71.5 13.5s38.167 23.167 57.5 42.5l49 -43c-12.667 -12.667 -25.167 -23.667 -37.5 -33s-25.5 -17.166 -39.5 -23.499s-29.333 -11.166 -46 -14.499s-35.667 -5 -57 -5
c-32.667 0 -62.167 5 -88.5 15s-48.833 25.333 -67.5 46s-33.167 46.834 -43.5 78.501s-15.5 69.167 -15.5 112.5c0 80 18 142 54 186s85.333 66 148 66c64 0 113.667 -21.333 149 -64s53 -100.667 53 -174v-33h-332zM395 280.997
c-0.666992 20 -1.99805 35.334 -3.99805 46.001s-5.66699 22.667 -11 36c-9.33301 22.667 -24.333 40.667 -45 54s-44 20 -70 20s-49.333 -6.66699 -70 -20s-35.667 -31.333 -45 -54c-2.66699 -6.66699 -4.83398 -12.834 -6.50098 -18.501s-3 -11.5 -4 -17.5
s-1.83301 -12.667 -2.5 -20s-1.33398 -16 -2.00098 -26h260v0z" />
    <glyph glyph-name="f" unicode="f" horiz-adv-x="314" 
d="M178 434l-0.00292969 -433.999h-72v434h-63v55h63v93c0 18 2.5 35 7.5 51s12.833 30 23.5 42s23.834 21.5 39.501 28.5s33.834 10.5 54.501 10.5h52v-62h-39c-23.333 0 -40.166 -6.33301 -50.499 -19s-15.5 -30.334 -15.5 -53.001v-91h105v-55h-105z" />
    <glyph glyph-name="g" unicode="g" horiz-adv-x="543" 
d="M453 -15c0 -30.667 -4.66699 -58.8271 -14 -84.4941s-22.666 -47.834 -39.999 -66.501s-38.833 -33.334 -64.5 -44.001s-54.5 -16 -86.5 -16c-18.667 0 -35.334 1.16699 -50.001 3.5s-28.5 6.16602 -41.5 11.499s-25.5 12.166 -37.5 20.499s-24.667 18.5 -38 30.5l47 46
c9.33301 -8 18 -15 26 -21s16.5 -11.167 25.5 -15.5s18.833 -7.5 29.5 -9.5s23 -3 37 -3c24 0 44.5 4 61.5 12s31 18.667 42 32s19 29.166 24 47.499s7.5 38.166 7.5 59.499v77c-20 -25.333 -41.333 -42.333 -64 -51s-47.334 -13 -74.001 -13
c-25.333 0 -48.166 4 -68.499 12s-37.166 18.667 -50.499 32c-24.667 24.667 -40.834 55 -48.501 91s-11.5 74 -11.5 114s3.83301 78 11.5 114s23.834 66.333 48.501 91c13.333 13.333 30.333 23.833 51 31.5s43.667 11.5 69 11.5c27.333 0 52.166 -4.16699 74.499 -12.5
s43.5 -25.5 63.5 -51.5v58h71v-507v0zM381 250.007c0 23.333 -1.33301 46 -4 68s-8.33398 41.5 -17.001 58.5s-21 30.833 -37 41.5s-37.333 16 -64 16s-48.167 -5.33301 -64.5 -16s-28.833 -24.5 -37.5 -41.5s-14.334 -36.5 -17.001 -58.5s-4 -44.667 -4 -68
c0 -22.667 1.33301 -45.167 4 -67.5s8.33398 -42 17.001 -59s21.167 -30.833 37.5 -41.5s37.833 -16 64.5 -16s48 5.33301 64 16s28.333 24.5 37 41.5s14.334 36.667 17.001 59s4 44.833 4 67.5z" />
    <glyph glyph-name="h" unicode="h" horiz-adv-x="562" 
d="M405 0l-0.00195312 304c0 43.333 -10.667 75.833 -32 97.5s-50.666 32.5 -87.999 32.5s-67.166 -11 -89.499 -33s-33.5 -54.333 -33.5 -97v-304h-72v712h72v-274c35.333 40 81.333 60 138 60c56 0 99.5 -16.333 130.5 -49s46.5 -77 46.5 -133v-316h-72z" />
    <glyph glyph-name="i" unicode="i" horiz-adv-x="253" 
d="M167 632h-81v81h81v-81v0zM162 0h-72v492h72v-492v0z" />
    <glyph glyph-name="j" unicode="j" horiz-adv-x="253" 
d="M86 632v81h81v-81h-81zM162 -89c0 -37.333 -9.99902 -68.667 -29.999 -94s-51.667 -38 -95 -38h-52v63h39c25.333 0 42.666 6 51.999 18s14 30 14 54v575h72v-578v0z" />
    <glyph glyph-name="k" unicode="k" horiz-adv-x="536" 
d="M503 0h-89l-156 252l-96 -110v-142h-72v712h72v-476l222 256h90l-167 -188l196 -304v0z" />
    <glyph glyph-name="l" unicode="l" horiz-adv-x="297" 
d="M213 0c-42.667 0 -74.166 12.5 -94.499 37.5s-30.5 56.167 -30.5 93.5v581h72v-578c0 -24 4.66699 -42 14 -54s26.666 -18 51.999 -18h39v-62h-52z" />
    <glyph glyph-name="m" unicode="m" horiz-adv-x="879" 
d="M722 0v302.999c0 44 -10.833 76.833 -32.5 98.5s-51.167 32.5 -88.5 32.5c-36 0 -65.5 -10.667 -88.5 -32s-34.5 -51.666 -34.5 -90.999v-311h-72v303c0 44 -10.833 76.833 -32.5 98.5s-51.167 32.5 -88.5 32.5s-67.166 -11 -89.499 -33s-33.5 -54.667 -33.5 -98v-303
h-72v492h72v-54c17.333 20 37.833 35 61.5 45s49.5 15 77.5 15c34 0 63.833 -6.83301 89.5 -20.5s46.167 -34.167 61.5 -61.5c38.667 54.667 92.667 82 162 82c26.667 0 50.667 -4 72 -12s39.666 -19.333 54.999 -34c35.333 -34 53 -79.667 53 -137v-315h-72z" />
    <glyph glyph-name="n" unicode="n" horiz-adv-x="562" 
d="M405 0v303c0 44 -10.833 76.833 -32.5 98.5s-51.167 32.5 -88.5 32.5s-67 -11 -89 -33s-33 -54.667 -33 -98v-303h-72v492h72v-54c35.333 40 81.333 60 138 60c53.333 0 95.333 -15.333 126 -46c34 -33.333 51 -79 51 -137v-315h-72z" />
    <glyph glyph-name="o" unicode="o" horiz-adv-x="530" 
d="M466 246c0 -18.667 -0.833008 -37.168 -2.5 -55.501s-4.66699 -35.666 -9 -51.999s-10.333 -32 -18 -47s-17.834 -28.833 -30.501 -41.5c-17.333 -17.333 -37.666 -31 -60.999 -41s-50 -15 -80 -15s-56.667 5 -80 15s-43.666 23.667 -60.999 41
c-24.667 25.333 -40.834 54.833 -48.501 88.5s-11.5 69.5 -11.5 107.5s3.83301 73.833 11.5 107.5s23.834 63.167 48.501 88.5c17.333 17.333 37.666 31 60.999 41s50 15 80 15s56.667 -5 80 -15s43.666 -23.667 60.999 -41c12.667 -12.667 22.834 -26.5 30.501 -41.5
s13.667 -30.667 18 -47s7.33301 -33.5 9 -51.5s2.5 -36.667 2.5 -56zM394 245.999c0 14 -0.333008 28 -1 42s-2.33398 27.667 -5.00098 41s-6.5 26 -11.5 38s-12.167 22.333 -21.5 31c-24 24 -54 36 -90 36c-35.333 0 -65 -12 -89 -36
c-8.66699 -8.66699 -15.667 -19 -21 -31s-9.5 -24.667 -12.5 -38s-4.83301 -27 -5.5 -41s-1 -28 -1 -42s0.333008 -28 1 -42s2.5 -27.667 5.5 -41s7.16699 -25.833 12.5 -37.5s12.333 -22.167 21 -31.5c24 -24 53.667 -36 89 -36c36 0 66 12 90 36
c9.33301 9.33301 16.5 19.833 21.5 31.5s8.83301 24.167 11.5 37.5s4.33398 27 5.00098 41s1 28 1 42z" />
    <glyph glyph-name="p" unicode="p" horiz-adv-x="545" 
d="M481 246c0 -19.333 -0.833008 -38.6699 -2.5 -58.0029s-4.66699 -38.166 -9 -56.499s-10.333 -35.5 -18 -51.5s-17.834 -30.333 -30.501 -43c-13.333 -13.333 -30.333 -23.833 -51 -31.5s-43.667 -11.5 -69 -11.5c-27.333 0 -52.333 4.33301 -75 13s-44 25.667 -64 51
v-278h-72v712h72v-58c20 26 41.333 43.167 64 51.5s47.667 12.5 75 12.5c25.333 0 48.333 -3.83301 69 -11.5s37.667 -18.167 51 -31.5c12.667 -12.667 22.834 -27 30.501 -43s13.667 -33.167 18 -51.5s7.33301 -37.166 9 -56.499s2.5 -38.666 2.5 -57.999zM409 245.996
c0 24 -1.33301 47.333 -4 70s-8.33398 42.667 -17.001 60s-21.167 31.333 -37.5 42s-37.833 16 -64.5 16s-48.167 -5.33301 -64.5 -16s-28.833 -24.667 -37.5 -42s-14.5 -37.333 -17.5 -60s-4.5 -46 -4.5 -70s1.5 -47.333 4.5 -70s8.83301 -42.667 17.5 -60
s21.167 -31.333 37.5 -42s37.833 -16 64.5 -16s48.167 5.33301 64.5 16s28.833 24.667 37.5 42s14.334 37.333 17.001 60s4 46 4 70z" />
    <glyph glyph-name="q" unicode="q" horiz-adv-x="545" 
d="M383 -220v278.004c-20 -25.333 -41.333 -42.333 -64 -51s-47.667 -13 -75 -13c-25.333 0 -48.333 3.83301 -69 11.5s-37.667 18.167 -51 31.5c-12.667 12.667 -22.834 27 -30.501 43s-13.667 33.167 -18 51.5s-7.33301 37.166 -9 56.499s-2.5 38.666 -2.5 57.999
s0.833008 38.666 2.5 57.999s4.66699 38.166 9 56.499s10.333 35.5 18 51.5s17.834 30.333 30.501 43c13.333 13.333 30.333 23.833 51 31.5s43.667 11.5 69 11.5c27.333 0 52.5 -4.16699 75.5 -12.5s44.5 -25.5 64.5 -51.5v58h71v-712h-72zM383 246.004
c0 24 -1.33301 47.333 -4 70s-8.33398 42.667 -17.001 60s-21.167 31.333 -37.5 42s-37.833 16 -64.5 16s-48.167 -5.33301 -64.5 -16s-28.833 -24.667 -37.5 -42s-14.5 -37.333 -17.5 -60s-4.5 -46 -4.5 -70s1.5 -47.333 4.5 -70s8.83301 -42.667 17.5 -60
s21.167 -31.333 37.5 -42s37.833 -16 64.5 -16s48.167 5.33301 64.5 16s28.833 24.667 37.5 42s14.334 37.333 17.001 60s4 46 4 70z" />
    <glyph glyph-name="r" unicode="r" horiz-adv-x="421" 
d="M365 398c-13.333 13.333 -26 22.666 -38 27.999s-27.667 8 -47 8c-18 0 -34.333 -3.33301 -49 -10s-27 -16 -37 -28s-17.833 -26 -23.5 -42s-8.5 -33.333 -8.5 -52v-302h-72v492h72v-60c13.333 20.667 32.5 36.834 57.5 48.501s51.833 17.5 80.5 17.5
c23.333 0 44.5 -3.33301 63.5 -10s37.167 -18.667 54.5 -36z" />
    <glyph glyph-name="s" unicode="s" horiz-adv-x="496" 
d="M445 144c0 -24 -4.83301 -45.166 -14.5 -63.499s-23.334 -34 -41.001 -47s-38.667 -22.833 -63 -29.5s-51.5 -10 -81.5 -10c-42 0 -79.333 5.33301 -112 16s-62.667 29 -90 55l48 48c19.333 -20.667 42 -35.334 68 -44.001s54.333 -13 85 -13
c40.667 0 72.667 7.16699 96 21.5s35 36.166 35 65.499c0 21.333 -6.5 38 -19.5 50s-33.833 19.333 -62.5 22l-81 7c-48 4 -84.5 16.833 -109.5 38.5s-37.5 52.834 -37.5 93.501c0 22.667 4.5 42.834 13.5 60.501s21.5 32.667 37.5 45s35.167 21.833 57.5 28.5
s46.5 10 72.5 10c35.333 0 68.166 -4.33301 98.499 -13s56.5 -22 78.5 -40l-47 -47c-17.333 13.333 -37.166 23.166 -59.499 29.499s-46.166 9.5 -71.499 9.5c-36 0 -63.333 -7.16699 -82 -21.5s-28 -34.166 -28 -59.499c0 -21.333 6.5 -38 19.5 -50
s35.167 -19.333 66.5 -22l79 -7c21.333 -2 41 -5.66699 59 -11s33.333 -13.333 46 -24s22.5 -23.834 29.5 -39.501s10.5 -35.167 10.5 -58.5z" />
    <glyph glyph-name="t" unicode="t" horiz-adv-x="332" 
d="M228 0c-20.667 0 -39.001 3.50098 -55.001 10.501s-29.167 16.5 -39.5 28.5s-18.166 26 -23.499 42s-8 33 -8 51v302h-62v55h62v154h72v-154h105v-55h-105v-300c0 -22.667 5.33301 -40.334 16 -53.001s27.667 -19 51 -19h38v-62h-51z" />
    <glyph glyph-name="u" unicode="u" horiz-adv-x="562" 
d="M401 0l0.00195312 55c-17.333 -20 -37.833 -35.167 -61.5 -45.5s-49.5 -15.5 -77.5 -15.5c-54 0 -96.333 15.333 -127 46c-17.333 17.333 -30 37.5 -38 60.5s-12 48.833 -12 77.5v314h72v-303c0 -44 10.667 -76.833 32 -98.5s50.666 -32.5 87.999 -32.5
s67.166 11 89.499 33s33.5 54.667 33.5 98v303h72v-492h-71z" />
    <glyph glyph-name="v" unicode="v" horiz-adv-x="447" 
d="M436 492l-181 -492h-64l-180 492h78l134 -395l135 395h78v0z" />
    <glyph glyph-name="w" unicode="w" horiz-adv-x="724" 
d="M713 492l-155 -492h-67l-129 382l-128 -382h-67l-156 492h78l113 -395l129 395h62l130 -395l112 395h78v0z" />
    <glyph glyph-name="x" unicode="x" horiz-adv-x="478" 
d="M445 0h-87l-118 191l-120 -191h-87l167 251l-160 241h87l113 -182l111 182h87l-160 -241l167 -251v0z" />
    <glyph glyph-name="y" unicode="y" horiz-adv-x="447" 
d="M212 -119c-9.33301 -26 -21 -45.333 -35 -58c-13.333 -12.667 -28.333 -21.5 -45 -26.5s-33.667 -7.5 -51 -7.5h-31v64h22c12.667 0 23.167 1 31.5 3s15.5 5.5 21.5 10.5s11.167 11.333 15.5 19s8.5 17.167 12.5 28.5l35 96l-177 482h78l135 -395l134 395h78z" />
    <glyph glyph-name="z" unicode="z" horiz-adv-x="459" 
d="M407 0h-357v62l274 366h-259v64h342v-61l-275 -367h275v-64v0z" />
    <glyph glyph-name="braceleft" unicode="{" horiz-adv-x="354" 
d="M268 -74c-25.333 0 -45.833 2.33301 -61.5 7s-28.834 12.334 -39.501 23.001c-11.333 11.333 -19.166 24.166 -23.499 38.499s-6.5 34.5 -6.5 60.5v191c0 28 -6 48 -18 60c-5.33301 5.33301 -11.833 9.66602 -19.5 12.999s-16.167 5 -25.5 5h-26v64h26
c9.33301 0 17.833 1.66699 25.5 5s14.167 7.66602 19.5 12.999c12 12 18 32 18 60v191c0 26 2.16699 46.167 6.5 60.5s12.166 27.166 23.499 38.499c10.667 10.667 23.834 18.334 39.501 23.001s36.167 7 61.5 7h37v-64h-23c-17.333 0 -30.166 -0.833008 -38.499 -2.5
s-15.166 -5.16699 -20.499 -10.5s-9 -13 -11 -23s-3 -24 -3 -42v-188c0 -28.667 -5.66699 -50.167 -17 -64.5s-26.666 -26.166 -45.999 -35.499c19.333 -9.33301 34.666 -21.166 45.999 -35.499s17 -35.833 17 -64.5v-188c0 -18 1 -32 3 -42s5.66699 -17.667 11 -23
s12.166 -8.83301 20.499 -10.5s21.166 -2.5 38.499 -2.5h23v-64h-37z" />
    <glyph glyph-name="bar" unicode="|" horiz-adv-x="326" 
d="M199 -74h-72v860h72v-860v0z" />
    <glyph glyph-name="braceright" unicode="}" horiz-adv-x="354" 
d="M280 324c-9.33301 0 -17.833 -1.66699 -25.5 -5s-14.167 -7.66602 -19.5 -12.999c-12 -12 -18 -32 -18 -60v-191c0 -26 -2.16699 -46.167 -6.5 -60.5s-12.166 -27.166 -23.499 -38.499c-10.667 -10.667 -23.834 -18.334 -39.501 -23.001s-36.167 -7 -61.5 -7h-38v64h24
c17.333 0 30 0.833008 38 2.5s14.667 5.16699 20 10.5s9.16602 13 11.499 23s3.5 24 3.5 42v188c0 28.667 5.66699 50.167 17 64.5s26.666 26.166 45.999 35.499c-19.333 9.33301 -34.666 21.166 -45.999 35.499s-17 35.833 -17 64.5v188c0 18 -1.16699 32 -3.5 42
s-6.16602 17.667 -11.499 23s-12 8.83301 -20 10.5s-20.667 2.5 -38 2.5h-24v64h38c25.333 0 45.833 -2.33301 61.5 -7s28.834 -12.334 39.501 -23.001c11.333 -11.333 19.166 -24.166 23.499 -38.499s6.5 -34.5 6.5 -60.5v-191c0 -28 6 -48 18 -60
c5.33301 -5.33301 11.833 -9.66602 19.5 -12.999s16.167 -5 25.5 -5h25v-64h-25z" />
    <glyph glyph-name="asciitilde" unicode="~" horiz-adv-x="539" 
d="M490 278c-14 -14 -26.5 -25.333 -37.5 -34s-21.333 -15.5 -31 -20.5s-19.334 -8.5 -29.001 -10.5s-20.167 -3 -31.5 -3c-17.333 0 -34.5 3 -51.5 9s-35.167 13.333 -54.5 22c-14 6.66699 -27.167 12.334 -39.5 17.001s-25.166 7 -38.499 7c-6.66699 0 -13 -0.5 -19 -1.5
s-12.167 -3.16699 -18.5 -6.5s-13.166 -7.83301 -20.499 -13.5s-16 -13.5 -26 -23.5l-44 45c14 14 26.5 25.5 37.5 34.5s21.333 16 31 21s19.334 8.33301 29.001 10s20.167 2.5 31.5 2.5c17.333 0 34.333 -3 51 -9s34.667 -13.333 54 -22
c14 -6.66699 27.167 -12.334 39.5 -17.001s25.166 -7 38.499 -7c7.33301 0 13.833 0.5 19.5 1.5s11.667 3.16699 18 6.5s13.166 7.83301 20.499 13.5s16 13.5 26 23.5l45 -45v0z" />
    <glyph glyph-name="Aring" horiz-adv-x="611" 
d="M599 0h-81l-57 161h-311l-57 -161h-81l262 712h64l261 -712v0zM439 227l-132 376l-134 -376h266v0zM420 867c0 -16 -3.16699 -31.333 -9.5 -46s-14.833 -27.334 -25.5 -38.001s-23.167 -19.167 -37.5 -25.5s-29.5 -9.5 -45.5 -9.5s-31.167 3.16699 -45.5 9.5
s-26.833 14.833 -37.5 25.5s-19.167 23.334 -25.5 38.001s-9.5 30 -9.5 46s3.16699 31.167 9.5 45.5s14.833 26.833 25.5 37.5s23.167 19.167 37.5 25.5s29.5 9.5 45.5 9.5s31.167 -3 45.5 -9s26.833 -14.333 37.5 -25s19.167 -23.167 25.5 -37.5s9.5 -29.833 9.5 -46.5z
M371 867c0 19.333 -6.66699 35.5 -20 48.5s-29.666 19.5 -48.999 19.5s-35.666 -6.5 -48.999 -19.5s-20 -29.167 -20 -48.5s6.66699 -35.666 20 -48.999s29.666 -20 48.999 -20s35.666 6.66699 48.999 20s20 29.666 20 48.999z" />
    <glyph glyph-name="ccedilla" horiz-adv-x="494" 
d="M443 67c-21.333 -23.333 -41.834 -40.334 -61.501 -51.001s-42.167 -17.334 -67.5 -20.001v-106h-70v107c-26 4 -50.167 12 -72.5 24s-41.5 28.5 -57.5 49.5s-28.5 46 -37.5 75s-13.5 62.5 -13.5 100.5c0 42 5.5 78.833 16.5 110.5s26.333 58 46 79
s42.834 36.667 69.501 47s55.334 15.5 86.001 15.5c34 0 63.167 -5.33301 87.5 -16s49.166 -29.667 74.499 -57l-49 -46c-18.667 20.667 -36.334 35 -53.001 43s-36.667 12 -60 12c-24 0 -45.667 -4.66699 -65 -14s-35.666 -23.333 -48.999 -42
c-11.333 -16 -19.5 -34.167 -24.5 -54.5s-7.5 -46.166 -7.5 -77.499s2.5 -57.166 7.5 -77.499s13.167 -38.5 24.5 -54.5c13.333 -18.667 29.666 -32.667 48.999 -42s41 -14 65 -14c23.333 0 43.333 4.16699 60 12.5s34.334 22.833 53.001 43.5l49 -47v0z" />
    <glyph glyph-name="eacute" horiz-adv-x="530" 
d="M135 227c0 -54 12.333 -95.8359 37 -125.503s60.667 -44.5 108 -44.5c28.667 0 52.5 4.5 71.5 13.5s38.167 23.167 57.5 42.5l49 -43c-12.667 -12.667 -25.167 -23.667 -37.5 -33s-25.5 -17.166 -39.5 -23.499s-29.333 -11.166 -46 -14.499s-35.667 -5 -57 -5
c-32.667 0 -62.167 5 -88.5 15s-48.833 25.333 -67.5 46s-33.167 46.834 -43.5 78.501s-15.5 69.167 -15.5 112.5c0 80 18 142 54 186s85.333 66 148 66c64 0 113.667 -21.333 149 -64s53 -100.667 53 -174v-33h-332zM395 280.997
c-0.666992 20 -1.99805 35.334 -3.99805 46.001s-5.66699 22.667 -11 36c-9.33301 22.667 -24.333 40.667 -45 54s-44 20 -70 20s-49.333 -6.66699 -70 -20s-35.667 -31.333 -45 -54c-2.66699 -6.66699 -4.83398 -12.834 -6.50098 -18.501s-3 -11.5 -4 -17.5
s-1.83301 -12.667 -2.5 -20s-1.33398 -16 -2.00098 -26h260v0zM393.002 746.998l-108 -153h-66l88 153h86v0z" />
    <glyph glyph-name="egrave" horiz-adv-x="530" 
d="M135 227c0 -54 12.333 -95.8359 37 -125.503s60.667 -44.5 108 -44.5c28.667 0 52.5 4.5 71.5 13.5s38.167 23.167 57.5 42.5l49 -43c-12.667 -12.667 -25.167 -23.667 -37.5 -33s-25.5 -17.166 -39.5 -23.499s-29.333 -11.166 -46 -14.499s-35.667 -5 -57 -5
c-32.667 0 -62.167 5 -88.5 15s-48.833 25.333 -67.5 46s-33.167 46.834 -43.5 78.501s-15.5 69.167 -15.5 112.5c0 80 18 142 54 186s85.333 66 148 66c64 0 113.667 -21.333 149 -64s53 -100.667 53 -174v-33h-332zM395 280.997
c-0.666992 20 -1.99805 35.334 -3.99805 46.001s-5.66699 22.667 -11 36c-9.33301 22.667 -24.333 40.667 -45 54s-44 20 -70 20s-49.333 -6.66699 -70 -20s-35.667 -31.333 -45 -54c-2.66699 -6.66699 -4.83398 -12.834 -6.50098 -18.501s-3 -11.5 -4 -17.5
s-1.83301 -12.667 -2.5 -20s-1.33398 -16 -2.00098 -26h260v0zM317.002 593.998h-66l-108 153h86l88 -153v0z" />
    <glyph glyph-name="ecircumflex" horiz-adv-x="530" 
d="M135 227c0 -54 12.333 -95.8359 37 -125.503s60.667 -44.5 108 -44.5c28.667 0 52.5 4.5 71.5 13.5s38.167 23.167 57.5 42.5l49 -43c-12.667 -12.667 -25.167 -23.667 -37.5 -33s-25.5 -17.166 -39.5 -23.499s-29.333 -11.166 -46 -14.499s-35.667 -5 -57 -5
c-32.667 0 -62.167 5 -88.5 15s-48.833 25.333 -67.5 46s-33.167 46.834 -43.5 78.501s-15.5 69.167 -15.5 112.5c0 80 18 142 54 186s85.333 66 148 66c64 0 113.667 -21.333 149 -64s53 -100.667 53 -174v-33h-332zM395 280.997
c-0.666992 20 -1.99805 35.334 -3.99805 46.001s-5.66699 22.667 -11 36c-9.33301 22.667 -24.333 40.667 -45 54s-44 20 -70 20s-49.333 -6.66699 -70 -20s-35.667 -31.333 -45 -54c-2.66699 -6.66699 -4.83398 -12.834 -6.50098 -18.501s-3 -11.5 -4 -17.5
s-1.83301 -12.667 -2.5 -20s-1.33398 -16 -2.00098 -26h260v0zM427.002 593.998h-69l-90 104l-90 -104h-69l125 153h68l125 -153v0z" />
    <glyph glyph-name="ugrave" horiz-adv-x="563" 
d="M401 0l0.00195312 55c-17.333 -20 -37.833 -35.167 -61.5 -45.5s-49.5 -15.5 -77.5 -15.5c-54 0 -96.333 15.333 -127 46c-17.333 17.333 -30 37.5 -38 60.5s-12 48.833 -12 77.5v314h72v-303c0 -44 10.667 -76.833 32 -98.5s50.666 -32.5 87.999 -32.5
s67.166 11 89.499 33s33.5 54.667 33.5 98v303h72v-492h-71zM327.002 594h-66l-108 153h86l88 -153v0z" />
    <glyph glyph-name="ucircumflex" horiz-adv-x="563" 
d="M401 0l0.00195312 55c-17.333 -20 -37.833 -35.167 -61.5 -45.5s-49.5 -15.5 -77.5 -15.5c-54 0 -96.333 15.333 -127 46c-17.333 17.333 -30 37.5 -38 60.5s-12 48.833 -12 77.5v314h72v-303c0 -44 10.667 -76.833 32 -98.5s50.666 -32.5 87.999 -32.5
s67.166 11 89.499 33s33.5 54.667 33.5 98v303h72v-492h-71zM437.002 594h-69l-90 104l-90 -104h-69l125 153h68l125 -153v0z" />
    <glyph glyph-name="dagger" unicode="&#xa0;" horiz-adv-x="605" 
d="M531 445h-194v-445h-72v445h-191v64h191v203h72v-203h194v-64v0z" />
    <glyph glyph-name="degree" unicode="&#xa1;" horiz-adv-x="463" 
d="M396 557c0 -22.667 -4.33301 -44 -13 -64s-20.334 -37.333 -35.001 -52s-32 -26.334 -52 -35.001s-41.333 -13 -64 -13s-44 4.33301 -64 13s-37.5 20.334 -52.5 35.001s-26.833 32 -35.5 52s-13 41.333 -13 64s4.33301 44 13 64s20.5 37.333 35.5 52
s32.5 26.334 52.5 35.001s41.333 13 64 13s44 -4.33301 64 -13s37.333 -20.334 52 -35.001s26.334 -32 35.001 -52s13 -41.333 13 -64zM335 557c0 15.333 -2.66699 29.333 -8 42s-12.666 23.834 -21.999 33.501s-20.333 17.167 -33 22.5s-26.334 8 -41.001 8
s-28.334 -2.66699 -41.001 -8s-23.5 -12.833 -32.5 -22.5s-16.167 -20.834 -21.5 -33.501s-8 -26.667 -8 -42c0 -14.667 2.66699 -28.5 8 -41.5s12.666 -24.333 21.999 -34s20.333 -17.167 33 -22.5s26.334 -8 41.001 -8s28.334 2.66699 41.001 8s23.5 12.833 32.5 22.5
s16.167 21 21.5 34s8 26.833 8 41.5z" />
    <glyph glyph-name="cent" unicode="&#xa2;" horiz-adv-x="498" 
d="M448 189c-23.333 -25.333 -45.833 -43.5 -67.5 -54.5s-47.5 -17.5 -77.5 -19.5v-115h-59v117c-55.333 8 -99.333 33.333 -132 76s-49 100.334 -49 173.001s16.333 130.334 49 173.001s76.667 68 132 76v97h59v-95c30 -2 55.833 -8.5 77.5 -19.5
s44.167 -29.167 67.5 -54.5l-49 -46c-16.667 18.667 -32.5 32.167 -47.5 40.5s-32.5 13.166 -52.5 14.499v-372c20 1.33301 37.5 6.16602 52.5 14.499s30.833 21.833 47.5 40.5l49 -46v0zM248 550c-32.667 -6 -59.334 -23.335 -80.001 -52.002
c-11.333 -16 -19.666 -34.167 -24.999 -54.5s-8 -46.166 -8 -77.499s2.66699 -57.166 8 -77.499s13.666 -38.5 24.999 -54.5c20.667 -28.667 47.334 -46 80.001 -52v368z" />
    <glyph glyph-name="sterling" unicode="&#xa3;" horiz-adv-x="548" 
d="M110 0v330h-63v54h63v112c0 34 5.5 64.833 16.5 92.5s26.333 51 46 70s43.167 33.667 70.5 44s57.333 15.5 90 15.5c34 0 64.167 -5.16699 90.5 -15.5s50.5 -26.5 72.5 -48.5l-52 -51c-12.667 13.333 -27 24.5 -43 33.5s-38.667 13.5 -68 13.5
c-46.667 0 -82.667 -14.167 -108 -42.5s-38 -68.833 -38 -121.5v-102h146v-54h-146v-262h309v-68h-386z" />
    <glyph glyph-name="section" unicode="&#xa4;" horiz-adv-x="557" 
d="M470 254c0 -20.667 -3.00098 -39.499 -9.00098 -56.499s-13.833 -32.5 -23.5 -46.5s-20.667 -26 -33 -36s-25.166 -18.333 -38.499 -25c28.667 -10.667 52 -28.167 70 -52.5s27 -54.833 27 -91.5c0 -26 -4.83301 -49.667 -14.5 -71s-22.667 -39.5 -39 -54.5
s-35.666 -26.5 -57.999 -34.5s-46.5 -12 -72.5 -12c-24.667 0 -48.167 3.33301 -70.5 10s-42 16.834 -59 30.501s-30.833 30.5 -41.5 50.5s-16.667 43.333 -18 70h73c3.33301 -31.333 15 -55 35 -71s47 -24 81 -24s61 9 81 27s30 44 30 78
c0 23.333 -7.66699 44.166 -23 62.499s-37 31.5 -65 39.5l-78 22c-44 12.667 -77.833 34.834 -101.5 66.501s-35.5 70.5 -35.5 116.5c0 20.667 3 39.5 9 56.5s13.833 32.5 23.5 46.5s20.834 26 33.501 36s25.667 18.333 39 25c-28.667 13.333 -51.334 30.5 -68.001 51.5
s-25 49.833 -25 86.5c0 24 4.5 46.167 13.5 66.5s21.5 37.666 37.5 51.999s35 25.5 57 33.5s46 12 72 12s50 -3.66699 72 -11s41 -17.666 57 -30.999s28.667 -29.833 38 -49.5s14.333 -41.5 15 -65.5h-72c-2.66699 33.333 -13.667 57.166 -33 71.499s-45 21.5 -77 21.5
c-34 0 -60.5 -8.33301 -79.5 -25s-28.5 -41.334 -28.5 -74.001c0 -26.667 7.66699 -47.5 23 -62.5s35.666 -26.167 60.999 -33.5l78 -22c44 -12.667 77.833 -35 101.5 -67s35.5 -70.667 35.5 -116zM396.999 253.001c0 19.333 -2.16699 36.335 -6.5 51.002
s-12.833 28.334 -25.5 41.001c-24 24 -52.667 36 -86 36c-35.333 0 -64 -12 -86 -36c-11.333 -12.667 -19.666 -26 -24.999 -40s-8 -31.333 -8 -52c0 -21.333 3.16699 -39.333 9.5 -54s14.166 -27.334 23.499 -38.001c22 -24 50.667 -36 86 -36s64 12 86 36
c10 11.333 17.833 24.166 23.5 38.499s8.5 32.166 8.5 53.499z" />
    <glyph glyph-name="bullet" unicode="&#xa5;" horiz-adv-x="532" 
d="M429 334c0 -22.667 -4.33301 -43.834 -13 -63.501s-20.334 -36.834 -35.001 -51.501s-31.834 -26.334 -51.501 -35.001s-40.834 -13 -63.501 -13s-43.834 4.33301 -63.501 13s-36.834 20.334 -51.501 35.001s-26.334 31.834 -35.001 51.501s-13 40.834 -13 63.501
s4.33301 43.834 13 63.501s20.334 36.834 35.001 51.501s31.834 26.334 51.501 35.001s40.834 13 63.501 13s43.834 -4.33301 63.501 -13s36.834 -20.334 51.501 -35.001s26.334 -31.834 35.001 -51.501s13 -40.834 13 -63.501z" />
    <glyph glyph-name="paragraph" unicode="&#xa6;" horiz-adv-x="603" 
d="M428 -220l-0.000976562 864h-117v-864h-72v546c-30 0 -57.167 5.33301 -81.5 16s-45 25 -62 43s-30.167 38.5 -39.5 61.5s-14 46.833 -14 71.5c0 26.667 4.83301 51.834 14.5 75.501s23.834 44.167 42.501 61.5s41.5 31.166 68.5 41.499s57.5 15.5 91.5 15.5h241v-932
h-72z" />
    <glyph glyph-name="germandbls" unicode="&#xa7;" horiz-adv-x="556" 
d="M484 141c0 -46 -13 -80.998 -39 -104.998c-13.333 -12.667 -28 -21.834 -44 -27.501s-35.667 -8.5 -59 -8.5h-54v62h40c14.667 0 26 1.5 34 4.5s16.333 8.16699 25 15.5c16.667 13.333 25 35.666 25 66.999v169c0 27.333 -7 48 -21 62s-33.667 21 -59 21h-44v60h36
c26 0 47.167 8.16699 63.5 24.5s24.5 38.5 24.5 66.5c0 14.667 -2.83301 28.5 -8.5 41.5s-13.167 24.167 -22.5 33.5c-20 19.333 -51.333 29 -94 29c-44.667 0 -76.5 -12.5 -95.5 -37.5s-28.5 -57.5 -28.5 -97.5v-521h-73v524c0 62.667 18 110.834 54 144.501
s85 50.5 147 50.5c26.667 0 51.667 -3.33301 75 -10s43.833 -16.667 61.5 -30s31.5 -30.5 41.5 -51.5s15 -45.833 15 -74.5c0 -28 -5.5 -51.5 -16.5 -70.5s-26.5 -35.167 -46.5 -48.5c24 -12.667 40.5 -27.834 49.5 -45.501s13.5 -42.5 13.5 -74.5v-173v0z" />
    <glyph glyph-name="registered" unicode="&#xa8;" horiz-adv-x="881" 
d="M802 356c0 -50 -9.5 -97 -28.5 -141s-44.833 -82.333 -77.5 -115s-71 -58.5 -115 -77.5s-91 -28.5 -141 -28.5s-97 9.5 -141 28.5s-82.333 44.833 -115 77.5s-58.5 71 -77.5 115s-28.5 91 -28.5 141s9.5 97 28.5 141s44.833 82.333 77.5 115s71 58.5 115 77.5
s91 28.5 141 28.5s97 -9.5 141 -28.5s82.333 -44.833 115 -77.5s58.5 -71 77.5 -115s28.5 -91 28.5 -141zM745 356c0 42.667 -8 82.667 -24 120s-37.833 70 -65.5 98s-60 50.167 -97 66.5s-76.5 24.5 -118.5 24.5s-81.5 -8.16699 -118.5 -24.5s-69.167 -38.5 -96.5 -66.5
s-49 -60.667 -65 -98s-24 -77.333 -24 -120s8 -82.667 24 -120s37.667 -70 65 -98s59.5 -50.167 96.5 -66.5s76.5 -24.5 118.5 -24.5s81.5 8.16699 118.5 24.5s69.333 38.5 97 66.5s49.5 60.667 65.5 98s24 77.333 24 120zM528 158l-91 162.002h-60v-162h-55v397h135
c17.333 0 33.5 -3 48.5 -9s28.167 -14.333 39.5 -25s20.333 -23.334 27 -38.001s10 -30.334 10 -47.001c0 -29.333 -8 -53 -24 -71s-36.333 -30.667 -61 -38l95 -169h-64zM526 436.002c0 20 -7 36.667 -21 50s-32 20 -54 20h-74v-139h74c22 0 40 6.5 54 19.5
s21 29.5 21 49.5z" />
    <glyph glyph-name="copyright" unicode="&#xa9;" horiz-adv-x="881" 
d="M802 356c0 -50 -9.5 -97 -28.5 -141s-44.833 -82.333 -77.5 -115s-71 -58.5 -115 -77.5s-91 -28.5 -141 -28.5s-97 9.5 -141 28.5s-82.333 44.833 -115 77.5s-58.5 71 -77.5 115s-28.5 91 -28.5 141s9.5 97 28.5 141s44.833 82.333 77.5 115s71 58.5 115 77.5
s91 28.5 141 28.5s97 -9.5 141 -28.5s82.333 -44.833 115 -77.5s58.5 -71 77.5 -115s28.5 -91 28.5 -141zM744 356c0 42 -8 81.667 -24 119s-37.667 70 -65 98s-59.5 50.167 -96.5 66.5s-76.5 24.5 -118.5 24.5s-81.333 -8.16699 -118 -24.5s-68.834 -38.5 -96.501 -66.5
s-49.334 -60.667 -65.001 -98s-23.5 -77 -23.5 -119s7.83301 -81.667 23.5 -119s37.334 -70 65.001 -98s59.834 -50.167 96.501 -66.5s76 -24.5 118 -24.5s81.5 8.16699 118.5 24.5s69.167 38.5 96.5 66.5s49 60.667 65 98s24 77 24 119zM576 205
c-19.333 -17.333 -39 -30.333 -59 -39s-44 -13 -72 -13c-28.667 0 -54.167 5.16699 -76.5 15.5s-41 24.5 -56 42.5s-26.333 39.333 -34 64s-11.5 51.667 -11.5 81s3.83301 56.5 11.5 81.5s19 46.5 34 64.5s33.667 32.167 56 42.5s47.833 15.5 76.5 15.5
c28 0 51.667 -4.33301 71 -13s39.333 -22 60 -40l-36 -36c-16.667 14.667 -32 24.834 -46 30.501s-30.333 8.5 -49 8.5c-22.667 0 -41.834 -4 -57.501 -12s-28.167 -19 -37.5 -33s-16.166 -30.333 -20.499 -49s-6.5 -38.667 -6.5 -60c0 -20.667 2.16699 -40.334 6.5 -59.001
s11.166 -35 20.499 -49s21.833 -25 37.5 -33s34.834 -12 57.501 -12c18.667 0 35 2.66699 49 8s29.333 15.333 46 30l36 -36v0z" />
    <glyph glyph-name="trademark" unicode="&#xaa;" horiz-adv-x="839" 
d="M781 285h-57v308l-102 -202h-56l-102 202v-308h-58v427h58l130 -259l130 259h57v-427v0zM331 659h-119v-374h-58v374h-118v53h295v-53v0z" />
    <glyph glyph-name="acute" unicode="&#xab;" horiz-adv-x="500" 
d="M375 747l-108 -153h-66l88 153h86v0z" />
    <glyph glyph-name="dieresis" unicode="&#xac;" horiz-adv-x="500" 
d="M392 602h-72v89h72v-89v0zM180 602h-72v89h72v-89v0z" />
    <glyph glyph-name="notequal" unicode="&#xad;" horiz-adv-x="537" 
d="M485 151h-284l-103 -111l-46 40l67 71h-67v66h126l99 103h-225v67h284l104 111l45 -41l-67 -70h67v-67h-126l-98 -103h224v-66v0z" />
    <glyph glyph-name="AE" unicode="&#xae;" horiz-adv-x="922" 
d="M867 0h-441v169h-247l-88 -169h-83l376 712h483v-68h-366v-253h312v-68h-312v-255h366v-68v0zM426 235v409l-214 -409h214v0z" />
    <glyph glyph-name="Oslash" unicode="&#xaf;" horiz-adv-x="652" 
d="M574 356c0 -38 -0.333984 -71.167 -1.00098 -99.5s-3.16699 -53.666 -7.5 -75.999s-11 -42.5 -20 -60.5s-21.833 -35.333 -38.5 -52c-24 -24 -51.333 -42.333 -82 -55s-64 -19 -100 -19c-46.667 0 -88.667 10.667 -126 32l-33 -70h-65l50 104l-8 8
c-16.667 16.667 -29.5 34 -38.5 52s-15.667 38.167 -20 60.5s-6.83301 47.666 -7.5 75.999s-1 61.5 -1 99.5s0.333008 71.167 1 99.5s3.16699 53.666 7.5 75.999s11 42.5 20 60.5s21.833 35.333 38.5 52c49.333 49.333 110 74 182 74c46.667 0 88.334 -10.333 125.001 -31
l34 69h65l-50 -104l4 -4l4 -4c16.667 -16.667 29.5 -34 38.5 -52s15.667 -38.167 20 -60.5s6.83301 -47.666 7.5 -75.999s1 -61.5 1 -99.5zM496.999 356c0 32.667 -0.331055 60.667 -0.998047 84s-2.16699 43.833 -4.5 61.5s-5.66602 32.667 -9.99902 45
s-10.5 23.833 -18.5 34.5l-234 -490c14 -9.33301 29.167 -16.5 45.5 -21.5s33.166 -7.5 50.499 -7.5c23.333 0 45.833 4.5 67.5 13.5s40.167 21.5 55.5 37.5c11.333 11.333 20.166 23.5 26.499 36.5s11.166 28.5 14.499 46.5s5.5 39.833 6.5 65.5s1.5 57.167 1.5 94.5z
M421.001 621c-14 9.33301 -29.1689 16.5 -45.502 21.5s-33.166 7.5 -50.499 7.5c-23.333 0 -45.833 -4.5 -67.5 -13.5s-40.167 -21.5 -55.5 -37.5c-11.333 -11.333 -20.333 -23.5 -27 -36.5s-11.667 -28.5 -15 -46.5s-5.5 -39.833 -6.5 -65.5s-1.5 -57.167 -1.5 -94.5
c0 -32.667 0.333008 -60.667 1 -84s2.33398 -43.833 5.00098 -61.5s6.16699 -32.667 10.5 -45s10.5 -23.833 18.5 -34.5l234 490v0z" />
    <glyph glyph-name="infinity" unicode="&#xb0;" horiz-adv-x="808" 
d="M740 267c0 -22.667 -3.66797 -43.666 -11.001 -62.999s-18 -36.166 -32 -50.499s-30.667 -25.5 -50 -33.5s-41 -12 -65 -12c-34.667 0 -65.667 8.33301 -93 25s-55.666 43 -84.999 79c-29.333 -36 -57.666 -62.5 -84.999 -79.5s-58 -25.5 -92 -25.5
c-24 0 -45.833 4.16699 -65.5 12.5s-36.5 19.666 -50.5 33.999s-24.833 31.166 -32.5 50.499s-11.5 40.333 -11.5 63s3.83301 43.667 11.5 63s18.5 36.166 32.5 50.499s30.833 25.666 50.5 33.999s41.5 12.5 65.5 12.5c33.333 0 63.666 -8.66699 90.999 -26s56 -44 86 -80
c30 36 58.333 62.667 85 80s57.667 26 93 26c24 0 45.667 -4.16699 65 -12.5s36 -19.666 50 -33.999s24.667 -31.166 32 -50.499s11 -40.333 11 -63zM670.999 266.001c0 28 -8.5 50.5 -25.5 67.5s-39.167 25.5 -66.5 25.5c-24.667 0 -46.667 -8.5 -66 -25.5
s-40.666 -39.5 -63.999 -67.5c23.333 -28 44.666 -50.5 63.999 -67.5s41.333 -25.5 66 -25.5c27.333 0 49.5 8.5 66.5 25.5s25.5 39.5 25.5 67.5zM357.999 266.001c-23.333 28 -44.5 50.667 -63.5 68s-40.833 26 -65.5 26c-27.333 0 -49.666 -8.66699 -66.999 -26
s-26 -40 -26 -68s8.66699 -50.5 26 -67.5s39.666 -25.5 66.999 -25.5c24.667 0 46.5 8.5 65.5 25.5s40.167 39.5 63.5 67.5z" />
    <glyph glyph-name="plusminus" unicode="&#xb1;" 
d="M470 289h-175v-177h-67v177h-176v67h176v175h67v-175h175v-67v0zM470 0h-418v67h418v-67v0z" />
    <glyph glyph-name="lessequal" unicode="&#xb2;" horiz-adv-x="1027" 
d="M862 -31l-49 -49l-557 558v-516l-67 67v564h565l66 -67l-515 1l557 -558v0z" />
    <glyph glyph-name="greaterequal" unicode="&#xb3;" horiz-adv-x="1027" 
d="M838 29l-67 -67v516l-557 -558l-49 49l557 558l-515 -1l66 67h565v-564v0z" />
    <glyph glyph-name="yen" unicode="&#xb4;" horiz-adv-x="514" 
d="M506 712l-157 -311h100v-54h-127l-26 -53v-52h153v-55h-153v-187h-77v187h-154v55h154v52l-26 53h-128v54h100l-157 311h82l168 -341l167 341h81v0z" />
    <glyph glyph-name="mu" unicode="&#xb5;" horiz-adv-x="561" 
d="M399 0l0.000976562 55c-35.333 -40.667 -81.333 -61 -138 -61c-44 0 -79.333 12.333 -106 37v-251h-72v712h72v-303c0 -44 10.833 -76.833 32.5 -98.5s51.167 -32.5 88.5 -32.5s67.166 11 89.499 33s33.5 54.667 33.5 98v303h72v-492h-72z" />
    <glyph glyph-name="partialdiff" unicode="&#xb6;" horiz-adv-x="544" 
d="M453 244c0 -38 -3.50098 -73.665 -10.501 -106.998s-22.5 -62.666 -46.5 -87.999c-16 -17.333 -35.333 -30.833 -58 -40.5s-48.667 -14.5 -78 -14.5s-55.5 4.83301 -78.5 14.5s-42.5 23.167 -58.5 40.5c-24 25.333 -39.5 54.666 -46.5 87.999s-10.5 69 -10.5 107
c0 40.667 3.5 77.667 10.5 111s22.5 62.333 46.5 87c13.333 14 31 26.333 53 37s47.667 16 77 16c24 0 46.5 -3.83301 67.5 -11.5s41.167 -23.167 60.5 -46.5v70c0 20 -2.5 39 -7.5 57s-13 33.833 -24 47.5s-25 24.5 -42 32.5s-37.5 12 -61.5 12
c-14 0 -26.333 -1.16699 -37 -3.5s-20.5 -5.5 -29.5 -9.5s-17.5 -9.16699 -25.5 -15.5l-26 -21.5l-46 46c13.333 12 25.833 22.167 37.5 30.5s24 15.166 37 20.499s26.833 9.16602 41.5 11.499s31.334 3.5 50.001 3.5c33.333 0 62.833 -5.16699 88.5 -15.5
s47.167 -25 64.5 -44s30.333 -41.833 39 -68.5s13 -56 13 -88v-258v0zM380.999 244.002c0 14 -0.333008 28 -1 42s-2.16699 27.5 -4.5 40.5s-6 25.5 -11 37.5s-11.833 22.333 -20.5 31c-22.667 24 -50.667 36 -84 36c-34 0 -62.333 -12 -85 -36
c-8.66699 -8.66699 -15.334 -19 -20.001 -31s-8.33398 -24.5 -11.001 -37.5s-4.33398 -26.5 -5.00098 -40.5s-1 -28 -1 -42s0.333008 -28 1 -42s2.33398 -27.5 5.00098 -40.5s6.33398 -25.167 11.001 -36.5s11.334 -21.666 20.001 -30.999c22.667 -24 51 -36 85 -36
c33.333 0 61.333 12 84 36c8.66699 9.33301 15.5 19.666 20.5 30.999s8.66699 23.5 11 36.5s3.83301 26.5 4.5 40.5s1 28 1 42z" />
    <glyph glyph-name="summation" unicode="&#xb7;" horiz-adv-x="551" 
d="M500 -220h-443v65l202 438l-201 413v64h441v-68h-353l180 -375v-69l-182 -400h356v-68v0z" />
    <glyph glyph-name="summation" unicode="&#x2219;" horiz-adv-x="551" 
d="M500 -220h-443v65l202 438l-201 413v64h441v-68h-353l180 -375v-69l-182 -400h356v-68v0z" />
    <glyph glyph-name="product" unicode="&#xb8;" horiz-adv-x="696" 
d="M593 -220h-76v912h-338v-912h-76v980h490v-980v0z" />
    <glyph glyph-name="pi" unicode="&#xb9;" horiz-adv-x="591" 
d="M490 0h-69v427h-250v-427h-70v492h389v-492v0z" />
    <glyph glyph-name="integral" unicode="&#xba;" horiz-adv-x="372" 
d="M296 653c-24.667 0 -43 -6.66699 -55 -20s-18 -32.333 -18 -57v-654c0 -42.667 -11.833 -76.667 -35.5 -102s-57.167 -38 -100.5 -38h-50v62h39c24.667 0 43 6.66699 55 20s18 32.333 18 57v654c0 42.667 11.833 76.667 35.5 102s57.167 38 100.5 38h49v-62h-38z" />
    <glyph glyph-name="ordfeminine" unicode="&#xbb;" horiz-adv-x="449" 
d="M307 319l0.000976562 36.001c-15.333 -15.333 -31.333 -26 -48 -32s-37.667 -9 -63 -9c-27.333 0 -49.333 2.83301 -66 8.5s-31.334 14.834 -44.001 27.501c-20 21.333 -30 47.666 -30 78.999c0 34.667 11.5 62.334 34.5 83.001s56.5 31 100.5 31h115v36
c0 28 -7.16699 49 -21.5 63s-39.5 21 -75.5 21c-24.667 0 -44.167 -3.16699 -58.5 -9.5s-27.5 -17.833 -39.5 -34.5l-41 37c18 23.333 37.833 39.166 59.5 47.499s48.5 12.5 80.5 12.5c52.667 0 91.667 -11.333 117 -34s38 -55.334 38 -98.001v-265h-58zM306.001 498.001
h-107c-56 0 -84 -22.333 -84 -67c0 -22 6.83301 -38.333 20.5 -49s35.5 -16 65.5 -16c16.667 0 32.167 1.33301 46.5 4s27.5 9.66699 39.5 21c12.667 12 19 34.333 19 67v40z" />
    <glyph glyph-name="ordmasculine" unicode="&#xbc;" horiz-adv-x="455" 
d="M387 515c0 -30.667 -3 -59.167 -9 -85.5s-19 -49.833 -39 -70.5c-13.333 -13.333 -29.333 -24 -48 -32s-40 -12 -64 -12s-45.333 4 -64 12s-34.667 18.667 -48 32c-20 20.667 -33 44.167 -39 70.5s-9 54.833 -9 85.5c0 30 3 58.333 9 85s19 50.334 39 71.001
c13.333 13.333 29.333 24.166 48 32.499s40 12.5 64 12.5s45.333 -4.16699 64 -12.5s34.667 -19.166 48 -32.499c20 -20.667 33 -44.334 39 -71.001s9 -55 9 -85zM328 515c0 21.333 -1.66699 43 -5 65s-12 40 -26 54c-18.667 18.667 -42 28 -70 28s-51.333 -9.33301 -70 -28
c-14 -14 -22.5 -32 -25.5 -54s-4.5 -43.667 -4.5 -65s1.5 -42.833 4.5 -64.5s11.5 -39.5 25.5 -53.5c9.33301 -9.33301 20 -16.5 32 -21.5s24.667 -7.5 38 -7.5s26 2.5 38 7.5s22.667 12.167 32 21.5c14 14 22.667 31.833 26 53.5s5 43.167 5 64.5z" />
    <glyph glyph-name="Omega" unicode="&#xbd;" horiz-adv-x="650" 
d="M379 0l0.000976562 64c20 9.33301 37.5 19.666 52.5 30.999s28.167 26.333 39.5 45s18.5 45 21.5 79s4.5 79 4.5 135c0 37.333 -0.5 69 -1.5 95s-3.16699 48.167 -6.5 66.5s-8.16602 34 -14.499 47s-15.166 25.167 -26.499 36.5c-16 16 -34.667 28.5 -56 37.5
s-43.666 13.5 -66.999 13.5s-45.666 -4.5 -66.999 -13.5s-40 -21.5 -56 -37.5c-10.667 -11.333 -19.334 -23.5 -26.001 -36.5s-11.834 -28.667 -15.501 -47s-6 -40.5 -7 -66.5s-1.5 -57.667 -1.5 -95c0 -56 1.66699 -101 5 -135s10.666 -60.333 21.999 -79
s24.5 -33.667 39.5 -45s32.5 -21.666 52.5 -30.999v-64h-195v67h82c-13.333 11.333 -24.333 22.333 -33 33s-16 22 -22 34c-7.33301 14 -12.833 29.667 -16.5 47s-6.33398 35.5 -8.00098 54.5s-2.5 38.667 -2.5 59v61.5c0 38 0.333008 71.167 1 99.5
s3.16699 53.666 7.5 75.999s11 42.5 20 60.5s21.833 35.333 38.5 52c49.333 49.333 110 74 182 74s132.667 -24.667 182 -74c16.667 -16.667 29.5 -34 38.5 -52s15.667 -38.167 20 -60.5s6.83301 -47.666 7.5 -75.999s1 -61.5 1 -99.5v-61.5
c0 -20.333 -0.833008 -40 -2.5 -59s-4.33398 -37.167 -8.00098 -54.5s-9.16699 -33 -16.5 -47c-6 -12 -13.5 -23.333 -22.5 -34s-20.167 -21.667 -33.5 -33h83v-67h-195z" />
    <glyph glyph-name="ae" unicode="&#xbe;" horiz-adv-x="835" 
d="M440 227c0 -54 12.498 -95.833 37.498 -125.5s61.167 -44.5 108.5 -44.5c28.667 0 52.334 4.5 71.001 13.5s37.667 23.167 57 42.5l50 -43c-24.667 -24.667 -50.667 -43.5 -78 -56.5s-62 -19.5 -104 -19.5c-38.667 0 -73 6.83301 -103 20.5s-54 35.167 -72 64.5
c-22.667 -32 -47.667 -54.167 -75 -66.5s-62.333 -18.5 -105 -18.5c-34 0 -61.833 3.5 -83.5 10.5s-40.167 18.5 -55.5 34.5c-12 12 -21.167 26.833 -27.5 44.5s-9.5 36.167 -9.5 55.5c0 43.333 14.5 77.833 43.5 103.5s71.167 38.5 126.5 38.5h148v47
c0 36 -9.66699 63 -29 81s-51.666 27 -96.999 27c-32 0 -57 -4.16699 -75 -12.5s-34.333 -22.833 -49 -43.5l-49 45c22 28.667 46.5 48 73.5 58s60.5 15 100.5 15c88 0 145.667 -25.667 173 -77c34.667 51.333 86 77 154 77c64 0 113.667 -21.333 149 -64
s53 -100.667 53 -174v-33h-333zM700.998 281c-0.666992 20 -2 35.333 -4 46s-5.66699 22.667 -11 36c-9.33301 22.667 -24.333 40.667 -45 54s-44 20 -70 20s-49.333 -6.66699 -70 -20s-35.667 -31.333 -45 -54c-5.33301 -13.333 -9 -25.333 -11 -36s-3.66699 -26 -5 -46
h261v0zM368.998 227l-137.998 0.00195312c-73.333 0 -110 -29 -110 -87c0 -28.667 9 -49.834 27 -63.501s46.667 -20.5 86 -20.5c21.333 0 41.166 1.66699 59.499 5s35.166 12.666 50.499 27.999c16.667 16 25 44.333 25 85v53z" />
    <glyph glyph-name="oslash" unicode="&#xbf;" horiz-adv-x="530" 
d="M466 246c0 -18.667 -0.833008 -37.168 -2.5 -55.501s-4.66699 -35.666 -9 -51.999s-10.333 -32 -18 -47s-17.834 -28.833 -30.501 -41.5c-17.333 -17.333 -37.666 -31 -60.999 -41s-50 -15 -80 -15c-20.667 0 -39.667 2.33301 -57 7s-33.333 11.334 -48 20.001l-38 -65
h-57l57 96c-24 25.333 -39.667 54.5 -47 87.5s-11 68.5 -11 106.5s3.83301 73.833 11.5 107.5s23.834 63.167 48.501 88.5c17.333 17.333 37.666 31 60.999 41s50 15 80 15c20.667 0 39.667 -2.33301 57 -7s33.333 -11.334 48 -20.001l39 65h56l-57 -96
c24 -25.333 39.667 -54.5 47 -87.5s11 -68.5 11 -106.5zM394 245.999c0 23.333 -1.16895 46.833 -3.50195 70.5s-9.16602 44.5 -20.499 62.5l-177 -299c20.667 -14.667 44.667 -22 72 -22c36 0 66 12 90 36c9.33301 9.33301 16.5 19.833 21.5 31.5s8.83301 24.167 11.5 37.5
s4.33398 27 5.00098 41s1 28 1 42zM336.998 412.999c-20 14 -44 21 -72 21c-35.333 0 -65 -12 -89 -36c-8.66699 -8.66699 -15.667 -19 -21 -31s-9.5 -24.667 -12.5 -38s-4.83301 -27 -5.5 -41s-1 -28 -1 -42c0 -23.333 1.33301 -46.833 4 -70.5s9.66699 -44.5 21 -62.5
l176 300v0z" />
    <glyph glyph-name="questiondown" unicode="&#xc0;" horiz-adv-x="497" 
d="M185 408v84h85v-84h-85zM421 -43c0 -25.333 -4.66699 -49.166 -14 -71.499s-22.333 -41.833 -39 -58.5s-36.334 -29.667 -59.001 -39s-47.667 -14 -75 -14c-26 0 -50.5 4.5 -73.5 13.5s-43 21.667 -60 38s-30.333 35.666 -40 57.999s-14.5 46.833 -14.5 73.5
c0 23.333 4.33301 44.333 13 63s19.667 37.667 33 57l82 118c6 9.33301 10.5 19.333 13.5 30s4.5 20 4.5 28v40h72v-41c0 -19.333 -2.66699 -36 -8 -50s-13.333 -28.667 -24 -44l-81 -116c-9.33301 -14 -17.166 -27.333 -23.499 -40s-9.5 -27.667 -9.5 -45
c0 -34 10.833 -62.167 32.5 -84.5s49.5 -33.5 83.5 -33.5c18 0 34 3.16699 48 9.5s26 15 36 26s17.667 23.5 23 37.5s8 29 8 45h72v0z" />
    <glyph glyph-name="exclamdown" unicode="&#xc1;" horiz-adv-x="316" 
d="M185 408h-86v84h86v-84v0zM184 -220h-83l10 512h62l11 -512v0z" />
    <glyph glyph-name="logicalnot" unicode="&#xc2;" 
d="M471 103h-67v137h-353v67h420v-204v0z" />
    <glyph glyph-name="radical" unicode="&#xc3;" horiz-adv-x="562" 
d="M532 644h-89l-211 -644h-61l-163 492h79l115 -356l184 576h146v-68v0z" />
    <glyph glyph-name="florin" unicode="&#xc4;" horiz-adv-x="403" 
d="M323 652c-23.333 0 -41.333 -6.33203 -54 -18.999s-21 -30.334 -25 -53.001l-34 -196h105v-54h-115l-97 -550h-72l97 550h-98v54h108l34 198c3.33301 18 9 35 17 51s18.333 30 31 42s27.5 21.5 44.5 28.5s35.833 10.5 56.5 10.5h52v-62h-50z" />
    <glyph glyph-name="approxequal" unicode="&#xc5;" horiz-adv-x="539" 
d="M490 366c-14 -14 -26.5 -25.333 -37.5 -34s-21.333 -15.5 -31 -20.5s-19.334 -8.5 -29.001 -10.5s-20.167 -3 -31.5 -3c-17.333 0 -34.5 3.16699 -51.5 9.5s-35.167 13.833 -54.5 22.5c-14 6.66699 -27.167 12.167 -39.5 16.5s-25.166 6.5 -38.499 6.5
c-6.66699 0 -13 -0.5 -19 -1.5s-12.167 -3 -18.5 -6s-13.166 -7.33301 -20.499 -13s-16 -13.5 -26 -23.5l-44 44c14 14 26.5 25.5 37.5 34.5s21.333 16 31 21s19.334 8.5 29.001 10.5s20.167 3 31.5 3c17.333 0 34.333 -3.16699 51 -9.5s34.667 -13.833 54 -22.5
c14 -6.66699 27.167 -12.167 39.5 -16.5s25.166 -6.5 38.499 -6.5c7.33301 0 13.833 0.5 19.5 1.5s11.667 3 18 6s13.166 7.33301 20.499 13s16 13.5 26 23.5l45 -45v0zM490 189c-14 -14 -26.5 -25.333 -37.5 -34s-21.333 -15.5 -31 -20.5s-19.334 -8.5 -29.001 -10.5
s-20.167 -3 -31.5 -3c-17.333 0 -34.5 3 -51.5 9s-35.167 13.333 -54.5 22c-14 6.66699 -27 12.334 -39 17.001s-24.667 7 -38 7c-6.66699 0 -13 -0.5 -19 -1.5s-12.167 -3.16699 -18.5 -6.5s-13.166 -7.83301 -20.499 -13.5s-16 -13.5 -26 -23.5l-45 45
c14 14 26.5 25.5 37.5 34.5s21.333 16 31 21s19.334 8.33301 29.001 10s20.167 2.5 31.5 2.5c17.333 0 34.5 -3 51.5 -9s35.167 -13.333 54.5 -22c14 -6.66699 27 -12.334 39 -17.001s24.667 -7 38 -7c7.33301 0 13.833 0.5 19.5 1.5s11.667 3.16699 18 6.5
s13.166 7.83301 20.499 13.5s16 13.5 26 23.5l45 -45v0z" />
    <glyph glyph-name="Delta" unicode="&#xc6;" horiz-adv-x="603" 
d="M594 0h-586l262 712h63l261 -712v0zM495 66l-193 537l-194 -537h387v0z" />
    <glyph glyph-name="guillemotleft" unicode="&#xc7;" horiz-adv-x="554" 
d="M476 58l-210 210l210 210v-90l-121 -120l121 -121v-89v0zM250 58l-210 210l210 210v-90l-120 -120l120 -121v-89v0z" />
    <glyph glyph-name="guillemotright" unicode="&#xc8;" horiz-adv-x="554" 
d="M514 268l-210 -210v89l120 121l-120 120v90l210 -210v0zM288 268l-210 -210v89l121 121l-121 120v90l210 -210v0z" />
    <glyph glyph-name="ellipsis" unicode="&#xc9;" horiz-adv-x="757" 
d="M669 0h-92v92h92v-92v0zM424 0h-92v92h92v-92v0zM180 0h-92v92h92v-92v0z" />
    <glyph glyph-name="nonbreakingspace" unicode="&#xca;" horiz-adv-x="249" 
 />
    <glyph glyph-name="Agrave" unicode="&#xcb;" horiz-adv-x="611" 
d="M599 0h-81l-57 161h-311l-57 -161h-81l262 712h64l261 -712v0zM439 227l-132 376l-134 -376h266v0zM351 781h-66l-108 153h86l88 -153v0z" />
    <glyph glyph-name="Atilde" unicode="&#xcc;" horiz-adv-x="611" 
d="M599 0h-81l-57 161h-311l-57 -161h-81l262 712h64l261 -712v0zM439 227l-132 376l-134 -376h266v0zM459 846c-22.667 -22.667 -41.332 -36.835 -55.999 -42.502s-27.667 -8.5 -39 -8.5c-14 0 -26.333 2 -37 6s-22 9.66699 -34 17
c-9.33301 5.33301 -18.5 10.166 -27.5 14.499s-18.5 6.5 -28.5 6.5c-4 0 -7.83301 -0.333008 -11.5 -1s-7.83398 -2 -12.501 -4s-9.83398 -5.16699 -15.501 -9.5s-12.167 -10.166 -19.5 -17.499l-37 36c11.333 11.333 21.5 20.333 30.5 27s17.167 11.834 24.5 15.501
s14.333 6 21 7s13 1.5 19 1.5c14.667 0 27 -2.16699 37 -6.5s21.333 -10.166 34 -17.499c10.667 -6.66699 20.167 -11.667 28.5 -15s17.5 -5 27.5 -5c7.33301 0 15.333 1.66699 24 5s20.334 12.333 35.001 27l37 -36v0z" />
    <glyph glyph-name="Otilde" unicode="&#xcd;" horiz-adv-x="650" 
d="M574 356c0 -38 -0.333008 -71.167 -1 -99.5s-3.16699 -53.666 -7.5 -75.999s-11 -42.5 -20 -60.5s-21.833 -35.333 -38.5 -52c-24 -24 -51.333 -42.333 -82 -55s-64 -19 -100 -19c-72 0 -132.667 24.667 -182 74c-16.667 16.667 -29.5 34 -38.5 52
s-15.667 38.167 -20 60.5s-6.83301 47.666 -7.5 75.999s-1 61.5 -1 99.5s0.333008 71.167 1 99.5s3.16699 53.666 7.5 75.999s11 42.5 20 60.5s21.833 35.333 38.5 52c49.333 49.333 110 74 182 74s132.667 -24.667 182 -74c16.667 -16.667 29.5 -34 38.5 -52
s15.667 -38.167 20 -60.5s6.83301 -47.666 7.5 -75.999s1 -61.5 1 -99.5zM498 356c0 37.333 -0.5 68.833 -1.5 94.5s-3.16699 47.5 -6.5 65.5s-8.33301 33.5 -15 46.5s-15.667 25.167 -27 36.5c-15.333 16 -33.833 28.5 -55.5 37.5s-44.167 13.5 -67.5 13.5
s-45.833 -4.5 -67.5 -13.5s-40.167 -21.5 -55.5 -37.5c-11.333 -11.333 -20.333 -23.5 -27 -36.5s-11.667 -28.5 -15 -46.5s-5.5 -39.833 -6.5 -65.5s-1.5 -57.167 -1.5 -94.5s0.5 -68.833 1.5 -94.5s3.16699 -47.5 6.5 -65.5s8.33301 -33.5 15 -46.5
s15.667 -25.167 27 -36.5c15.333 -16 33.833 -28.5 55.5 -37.5s44.167 -13.5 67.5 -13.5s45.833 4.5 67.5 13.5s40.167 21.5 55.5 37.5c11.333 11.333 20.333 23.5 27 36.5s11.667 28.5 15 46.5s5.5 39.833 6.5 65.5s1.5 57.167 1.5 94.5zM482 846
c-22.667 -22.667 -41.332 -36.835 -55.999 -42.502s-27.667 -8.5 -39 -8.5c-14 0 -26.333 2 -37 6s-22 9.66699 -34 17c-9.33301 5.33301 -18.5 10.166 -27.5 14.499s-18.5 6.5 -28.5 6.5c-4 0 -7.83301 -0.333008 -11.5 -1s-7.83398 -2 -12.501 -4
s-9.83398 -5.16699 -15.501 -9.5s-12.167 -10.166 -19.5 -17.499l-37 36c11.333 11.333 21.5 20.333 30.5 27s17.167 11.834 24.5 15.501s14.333 6 21 7s13 1.5 19 1.5c14.667 0 27 -2.16699 37 -6.5s21.333 -10.166 34 -17.499c10.667 -6.66699 20.167 -11.667 28.5 -15
s17.5 -5 27.5 -5c7.33301 0 15.333 1.66699 24 5s20.334 12.333 35.001 27l37 -36v0z" />
    <glyph glyph-name="OE" unicode="&#xce;" horiz-adv-x="989" 
d="M497 0v73.9971c-22 -27.333 -48.167 -47.5 -78.5 -60.5s-61.833 -19.5 -94.5 -19.5c-71.333 0 -131.666 24.667 -180.999 74c-16.667 16.667 -29.5 33.834 -38.5 51.501s-15.667 37.834 -20 60.501s-6.83301 48.167 -7.5 76.5s-1 61.5 -1 99.5s0.333008 71.167 1 99.5
s3.16699 53.833 7.5 76.5s11 42.834 20 60.501s21.833 34.834 38.5 51.501c49.333 49.333 109.666 74 180.999 74c35.333 0 67.5 -6.5 96.5 -19.5s54.5 -33.167 76.5 -60.5v74h434v-67h-358c0 -39.333 0.166992 -81.833 0.5 -127.5s0.5 -87.834 0.5 -126.501h304v-64h-304
c0 -40 -0.166992 -83.333 -0.5 -130s-0.5 -90 -0.5 -130h360v-67h-436zM497 355.997c0 37.333 -0.5 68.833 -1.5 94.5s-3.16699 47.5 -6.5 65.5s-8.16602 33.5 -14.499 46.5s-15.166 25.167 -26.499 36.5c-15.333 16 -33.833 28.5 -55.5 37.5s-44.167 13.5 -67.5 13.5
s-45.833 -4.5 -67.5 -13.5s-40.167 -21.5 -55.5 -37.5c-11.333 -11.333 -20.333 -23.5 -27 -36.5s-11.667 -28.5 -15 -46.5s-5.5 -39.833 -6.5 -65.5s-1.5 -57.167 -1.5 -94.5s0.5 -68.833 1.5 -94.5s3.16699 -47.5 6.5 -65.5s8.33301 -33.5 15 -46.5
s15.667 -25.167 27 -36.5c15.333 -16 33.833 -28.5 55.5 -37.5s44.167 -13.5 67.5 -13.5s45.833 4.5 67.5 13.5s40.167 21.5 55.5 37.5c11.333 11.333 20.166 23.5 26.499 36.5s11.166 28.5 14.499 46.5s5.5 39.833 6.5 65.5s1.5 57.167 1.5 94.5z" />
    <glyph glyph-name="oe" unicode="&#xcf;" horiz-adv-x="861" 
d="M466 227c0 -54 12.3311 -95.835 36.998 -125.502s60.667 -44.5 108 -44.5c28.667 0 52.5 4.5 71.5 13.5s38.167 23.167 57.5 42.5l49 -43c-12.667 -12.667 -25.167 -23.667 -37.5 -33s-25.5 -17.166 -39.5 -23.499s-29.333 -11.166 -46 -14.499s-35.667 -5 -57 -5
c-82.667 0 -141.667 31.667 -177 95c-15.333 -30 -37.666 -53.333 -66.999 -70s-62.666 -25 -99.999 -25c-30 0 -56.667 5 -80 15s-43.666 23.667 -60.999 41c-24.667 25.333 -40.834 54.833 -48.501 88.5s-11.5 69.5 -11.5 107.5s3.83301 73.833 11.5 107.5
s23.834 63.167 48.501 88.5c17.333 17.333 37.666 31 60.999 41s50 15 80 15c37.333 0 70.833 -8.33301 100.5 -25s52.167 -40 67.5 -70c34 63.333 88.333 95 163 95c64 0 113.667 -21.333 149 -64s53 -100.667 53 -174v-33h-332zM726.998 280.998
c-1.33301 20 -2.99805 35.334 -4.99805 46.001s-5.66699 22.667 -11 36c-9.33301 22.667 -24.333 40.667 -45 54s-44 20 -70 20s-49.333 -6.66699 -70 -20s-35.667 -31.333 -45 -54c-2.66699 -6.66699 -4.83398 -12.834 -6.50098 -18.501s-3 -11.5 -4 -17.5
s-1.83301 -12.667 -2.5 -20s-1.33398 -16 -2.00098 -26h261v0zM394 245.999c0 14 -0.333008 28 -1 42s-2.33398 27.667 -5.00098 41s-6.5 26 -11.5 38s-12.167 22.333 -21.5 31c-24 24 -54 36 -90 36c-35.333 0 -65 -12 -89 -36c-8.66699 -8.66699 -15.667 -19 -21 -31
s-9.5 -24.667 -12.5 -38s-4.83301 -27 -5.5 -41s-1 -28 -1 -42s0.333008 -28 1 -42s2.5 -27.667 5.5 -41s7.16699 -25.833 12.5 -37.5s12.333 -22.167 21 -31.5c24 -24 53.667 -36 89 -36c36 0 66 12 90 36c9.33301 9.33301 16.5 19.833 21.5 31.5s8.83301 24.167 11.5 37.5
s4.33398 27 5.00098 41s1 28 1 42z" />
    <glyph glyph-name="endash" unicode="&#xd0;" 
d="M470 236h-418v67h418v-67v0z" />
    <glyph glyph-name="emdash" unicode="&#xd1;" horiz-adv-x="914" 
d="M838 236h-762v68h762v-68v0z" />
    <glyph glyph-name="quotedblleft" unicode="&#xd2;" horiz-adv-x="434" 
d="M346 628h-88v84l88 79v-163v0zM175 628h-87v84l87 79v-163v0z" />
    <glyph glyph-name="quotedblright" unicode="&#xd3;" horiz-adv-x="434" 
d="M346 628l-88 -79v163h88v-84v0zM175 628l-87 -79v163h87v-84v0z" />
    <glyph glyph-name="quoteleft" unicode="&#xd4;" horiz-adv-x="263" 
d="M175 628h-87v84l87 79v-163v0z" />
    <glyph glyph-name="quoteright" unicode="&#xd5;" horiz-adv-x="263" 
d="M175 628l-87 -79v163h87v-84v0z" />
    <glyph glyph-name="divide" unicode="&#xd6;" 
d="M304 404h-86v86h86v-86v0zM471 236h-420v67h420v-67v0zM304 49h-86v86h86v-86v0z" />
    <glyph glyph-name="lozenge" unicode="&#xd7;" horiz-adv-x="649" 
d="M582 352l-257 -364l-258 364l258 364l257 -364v0zM501 352l-176 253l-177 -253l177 -255l176 255v0z" />
    <glyph glyph-name="ydieresis" unicode="&#xd8;" horiz-adv-x="446" 
d="M212 -119c-9.33301 -26 -21 -45.333 -35 -58c-13.333 -12.667 -28.333 -21.5 -45 -26.5s-33.667 -7.5 -51 -7.5h-31v64h22c12.667 0 23.167 1 31.5 3s15.5 5.5 21.5 10.5s11.167 11.333 15.5 19s8.5 17.167 12.5 28.5l35 96l-177 482h78l135 -395l134 395h78zM366 602
h-72v89h72v-89v0zM154 602h-72v89h72v-89v0z" />
    <glyph glyph-name="Ydieresis" unicode="&#xd9;" horiz-adv-x="515" 
d="M506 712l-210 -418v-294h-76v294l-212 418h82l168 -341l166 341h82v0zM399 789h-72v89h72v-89v0zM187 789h-72v89h72v-89v0z" />
    <glyph glyph-name="fraction" unicode="&#xda;" horiz-adv-x="650" 
d="M576 260c0 -41.333 -4.66797 -76.4971 -14.001 -105.497s-25 -55.167 -47 -78.5c-25.333 -27.333 -54.166 -47.833 -86.499 -61.5s-66.833 -20.5 -103.5 -20.5c-35.333 0 -68.5 6.33301 -99.5 19s-58.5 31 -82.5 55c-16.667 16.667 -29.5 34 -38.5 52
s-15.667 38.167 -20 60.5s-6.83301 47.666 -7.5 75.999s-1 61.5 -1 99.5s0.333008 71.167 1 99.5s3.16699 53.666 7.5 75.999s11 42.5 20 60.5s21.833 35.333 38.5 52c49.333 49.333 110 74 182 74c34 0 65.167 -5.16699 93.5 -15.5s53.166 -25 74.499 -44
s38.833 -41.5 52.5 -67.5s23.167 -54.667 28.5 -86h-76c-10 45.333 -30.167 80.833 -60.5 106.5s-67.833 38.5 -112.5 38.5c-23.333 0 -45.833 -4.5 -67.5 -13.5s-40.167 -21.5 -55.5 -37.5c-11.333 -11.333 -20.333 -23.5 -27 -36.5s-11.667 -28.5 -15 -46.5
s-5.5 -39.833 -6.5 -65.5s-1.5 -57.167 -1.5 -94.5s0.5 -68.833 1.5 -94.5s3.16699 -47.667 6.5 -66s8.33301 -34 15 -47s15.667 -25.167 27 -36.5c15.333 -16 33.833 -28.333 55.5 -37s44.167 -13 67.5 -13c26 0 50.833 5.16699 74.5 15.5s43.834 25.5 60.501 45.5
c14.667 17.333 25 36.166 31 56.499s9 44.5 9 72.5v54h-175v67h251v-113v0zM144.999 785.003v67h335v-67h-335z" />
    <glyph glyph-name="currency" unicode="&#xdb;" horiz-adv-x="543" 
d="M453 -15c0 -30.667 -4.66699 -58.8271 -14 -84.4941s-22.666 -47.834 -39.999 -66.501s-38.833 -33.334 -64.5 -44.001s-54.5 -16 -86.5 -16c-18.667 0 -35.334 1.16699 -50.001 3.5s-28.5 6.16602 -41.5 11.499s-25.5 12.166 -37.5 20.499s-24.667 18.5 -38 30.5l47 46
c9.33301 -8 18 -15 26 -21s16.5 -11.167 25.5 -15.5s18.833 -7.5 29.5 -9.5s23 -3 37 -3c24 0 44.5 4 61.5 12s31 18.667 42 32s19 29.166 24 47.499s7.5 38.166 7.5 59.499v77c-20 -25.333 -41.333 -42.333 -64 -51s-47.334 -13 -74.001 -13
c-25.333 0 -48.166 4 -68.499 12s-37.166 18.667 -50.499 32c-24.667 24.667 -40.834 55 -48.501 91s-11.5 74 -11.5 114s3.83301 78 11.5 114s23.834 66.333 48.501 91c13.333 13.333 30.333 23.833 51 31.5s43.667 11.5 69 11.5c27.333 0 52.166 -4.16699 74.499 -12.5
s43.5 -25.5 63.5 -51.5v58h71v-507v0zM381 250.007c0 23.333 -1.33301 46 -4 68s-8.33398 41.5 -17.001 58.5s-21 30.833 -37 41.5s-37.333 16 -64 16s-48.167 -5.33301 -64.5 -16s-28.833 -24.5 -37.5 -41.5s-14.334 -36.5 -17.001 -58.5s-4 -44.667 -4 -68
c0 -22.667 1.33301 -45.167 4 -67.5s8.33398 -42 17.001 -59s21.167 -30.833 37.5 -41.5s37.833 -16 64.5 -16s48 5.33301 64 16s28.333 24.5 37 41.5s14.334 36.667 17.001 59s4 44.833 4 67.5zM123 632.007v57h302v-57h-302z" />
    <glyph glyph-name="guilsinglleft" unicode="&#xdc;" horiz-adv-x="282" 
d="M179 0h-76v712h76v-712v0zM103 875h71v-89h-71v89v0z" />
    <glyph glyph-name="guilsinglright" unicode="&#xdd;" horiz-adv-x="253" 
d="M162 0h-72v492h72v-492v0z" />
    <glyph glyph-name="fi" unicode="&#xde;" horiz-adv-x="588" 
d="M324 -110l-70.001 -0.00195312l-1 105c-44.667 2.66699 -83.5 11.334 -116.5 26.001s-64.5 37 -94.5 67l52 52c29.333 -29.333 59 -49.666 89 -60.999s65 -17 105 -17c52 0 93 11.5 123 34.5s45 55.5 45 97.5c0 18.667 -2.83301 35.667 -8.5 51s-14.167 28 -25.5 38
s-23.166 17.167 -35.499 21.5s-31.5 8.5 -57.5 12.5l-83 13c-56.667 9.33301 -100.334 27.333 -131.001 54c-36 32 -54 76.333 -54 133c0 30 5.33301 57.5 16 82.5s25.834 46.167 45.501 63.5s43.5 30.833 71.5 40.5s59.667 14.5 95 14.5
c45.333 0 84.333 -6.16699 117 -18.5s64.334 -32.166 95.001 -59.499l-49 -49c-22 20 -45.667 35.167 -71 45.5s-57 15.5 -95 15.5c-48 0 -85 -12 -111 -36s-39 -56 -39 -96c0 -36 10.667 -63.333 32 -82c11.333 -9.33301 25.5 -17.333 42.5 -24s34.833 -11.667 53.5 -15
l78 -12c33.333 -4.66699 59.666 -10.834 78.999 -18.501s36.333 -18.167 51 -31.5c40 -34 60 -81 60 -141c0 -57.333 -18.833 -103.5 -56.5 -138.5s-88.167 -55.5 -151.5 -61.5v-106z" />
    <glyph glyph-name="fl" unicode="&#xdf;" horiz-adv-x="496" 
d="M283 -110h-69.002l-1 106c-34 2 -65 8.33301 -93 19s-53.667 27.334 -77 50.001l48 48c19.333 -20.667 42 -35.334 68 -44.001s54.333 -13 85 -13c40.667 0 72.667 7.16699 96 21.5s35 36.166 35 65.499c0 21.333 -6.5 38 -19.5 50s-33.833 19.333 -62.5 22l-81 7
c-48 4 -84.5 16.833 -109.5 38.5s-37.5 52.834 -37.5 93.501c0 22.667 4.5 42.834 13.5 60.501s21.5 32.667 37.5 45s35.167 21.833 57.5 28.5s46.5 10 72.5 10c35.333 0 68.166 -4.33301 98.499 -13s56.5 -22 78.5 -40l-47 -47
c-17.333 13.333 -37.166 23.166 -59.499 29.499s-46.166 9.5 -71.499 9.5c-36 0 -63.333 -7.16699 -82 -21.5s-28 -34.166 -28 -59.499c0 -21.333 6.5 -38 19.5 -50s35.167 -19.333 66.5 -22l79 -7c21.333 -2 41 -5.66699 59 -11s33.333 -13.333 46 -24
s22.5 -23.834 29.5 -39.501s10.5 -35.167 10.5 -58.5c0 -42 -14.667 -75.833 -44 -101.5s-68.666 -41.167 -117.999 -46.5v-106z" />
    <glyph glyph-name="daggerdbl" unicode="&#xe0;" horiz-adv-x="605" 
d="M531 -16h-194v-204h-72v204h-191v64h191v397h-191v64h191v203h72v-203h194v-64h-194v-397h194v-64v0z" />
    <glyph glyph-name="periodcentered" unicode="&#xe1;" horiz-adv-x="270" 
d="M182 223h-94v94h94v-94v0z" />
    <glyph glyph-name="quotesinglbase" unicode="&#xe2;" horiz-adv-x="263" 
d="M175 0l-87 -79v163h87v-84v0z" />
    <glyph glyph-name="quotedblbase" unicode="&#xe3;" horiz-adv-x="434" 
d="M346 0l-88 -79v163h88v-84v0zM175 0l-87 -79v163h87v-84v0z" />
    <glyph glyph-name="perthousand" unicode="&#xe4;" horiz-adv-x="1179" 
d="M1115 128c0 -41.333 -12.833 -74.166 -38.5 -98.499s-57.834 -36.5 -96.501 -36.5c-39.333 0 -71.666 12.167 -96.999 36.5s-38 57.166 -38 98.499v105c0 41.333 12.667 74.166 38 98.499s57.666 36.5 96.999 36.5c38.667 0 70.834 -12.167 96.501 -36.5
s38.5 -57.166 38.5 -98.499v-105v0zM1058 231c0 26.667 -6.16699 47.8301 -18.5 63.4971s-32.166 23.5 -59.499 23.5c-28 0 -48 -7.66699 -60 -23s-18 -36.666 -18 -63.999v-101c0 -27.333 6 -48.666 18 -63.999s32 -23 60 -23c27.333 0 47.166 7.83301 59.499 23.5
s18.5 36.834 18.5 63.501v101zM769 127.996c0 -41.333 -12.833 -74.166 -38.5 -98.499s-57.834 -36.5 -96.501 -36.5c-39.333 0 -71.666 12.167 -96.999 36.5s-38 57.166 -38 98.499v105c0 41.333 12.667 74.166 38 98.499s57.666 36.5 96.999 36.5
c38.667 0 70.834 -12.167 96.501 -36.5s38.5 -57.166 38.5 -98.499v-105v0zM712 230.996c0 26.667 -6.16699 47.8301 -18.5 63.4971s-32.166 23.5 -59.499 23.5c-28 0 -48 -7.66699 -60 -23s-18 -36.666 -18 -63.999v-101c0 -27.333 6 -48.666 18 -63.999s32 -23 60 -23
c27.333 0 47.166 7.83301 59.499 23.5s18.5 36.834 18.5 63.501v101zM280 -0.0078125h-60l334 712h60zM335 478.992c0 -40.667 -12.833 -73.167 -38.5 -97.5s-57.834 -36.5 -96.501 -36.5c-39.333 0 -71.666 12.167 -96.999 36.5s-38 56.833 -38 97.5v105
c0 41.333 12.667 74.166 38 98.499s57.666 36.5 96.999 36.5c38.667 0 70.834 -12.167 96.501 -36.5s38.5 -57.166 38.5 -98.499v-105v0zM278 581.992c0 26.667 -6.16602 47.832 -18.499 63.499s-32.166 23.5 -59.499 23.5c-28 0 -48 -7.66699 -60 -23
s-18 -36.666 -18 -63.999v-101c0 -27.333 6.16699 -48.5 18.5 -63.5s32.166 -22.5 59.499 -22.5s47.166 7.66699 59.499 23s18.5 36.333 18.5 63v101z" />
    <glyph glyph-name="Acircumflex" unicode="&#xe5;" horiz-adv-x="611" 
d="M599 0h-81l-57 161h-311l-57 -161h-81l262 712h64l261 -712v0zM439 227l-132 376l-134 -376h266v0zM461 781h-69l-90 104l-90 -104h-69l125 153h68l125 -153v0z" />
    <glyph glyph-name="Ecircumflex" unicode="&#xe6;" horiz-adv-x="600" 
d="M545 0h-442v712h442v-68h-366v-251h312v-68h-312v-257h366v-68v0zM472 781h-69l-90 104l-90 -104h-69l125 153h68l125 -153v0z" />
    <glyph glyph-name="Aacute" unicode="&#xe7;" horiz-adv-x="611" 
d="M599 0h-81l-57 161h-311l-57 -161h-81l262 712h64l261 -712v0zM439 227l-132 376l-134 -376h266v0zM427 934l-108 -153h-66l88 153h86v0z" />
    <glyph glyph-name="Edieresis" unicode="&#xe8;" horiz-adv-x="600" 
d="M545 0h-442v712h442v-68h-366v-251h312v-68h-312v-257h366v-68v0zM455 789h-72v89h72v-89v0zM243 789h-72v89h72v-89v0z" />
    <glyph glyph-name="Egrave" unicode="&#xe9;" horiz-adv-x="600" 
d="M545 0h-442v712h442v-68h-366v-251h312v-68h-312v-257h366v-68v0zM362 781h-66l-108 153h86l88 -153v0z" />
    <glyph glyph-name="Iacute" unicode="&#xea;" horiz-adv-x="282" 
d="M179 0h-76v712h76v-712v0zM254 934l-108 -153h-66l88 153h86v0z" />
    <glyph glyph-name="Icircumflex" unicode="&#xeb;" horiz-adv-x="282" 
d="M179 0h-76v712h76v-712v0zM299 781h-69l-90 104l-90 -104h-69l125 153h68l125 -153v0z" />
    <glyph glyph-name="Idieresis" unicode="&#xec;" horiz-adv-x="282" 
d="M179 0h-76v712h76v-712v0zM283 789h-72v89h72v-89v0zM71 789h-72v89h72v-89v0z" />
    <glyph glyph-name="Igrave" unicode="&#xed;" horiz-adv-x="282" 
d="M179 0h-76v712h76v-712v0zM206 781h-66l-108 153h86l88 -153v0z" />
    <glyph glyph-name="Oacute" unicode="&#xee;" horiz-adv-x="650" 
d="M574 356c0 -38 -0.333008 -71.167 -1 -99.5s-3.16699 -53.666 -7.5 -75.999s-11 -42.5 -20 -60.5s-21.833 -35.333 -38.5 -52c-24 -24 -51.333 -42.333 -82 -55s-64 -19 -100 -19c-72 0 -132.667 24.667 -182 74c-16.667 16.667 -29.5 34 -38.5 52
s-15.667 38.167 -20 60.5s-6.83301 47.666 -7.5 75.999s-1 61.5 -1 99.5s0.333008 71.167 1 99.5s3.16699 53.666 7.5 75.999s11 42.5 20 60.5s21.833 35.333 38.5 52c49.333 49.333 110 74 182 74s132.667 -24.667 182 -74c16.667 -16.667 29.5 -34 38.5 -52
s15.667 -38.167 20 -60.5s6.83301 -47.666 7.5 -75.999s1 -61.5 1 -99.5zM498 356c0 37.333 -0.5 68.833 -1.5 94.5s-3.16699 47.5 -6.5 65.5s-8.33301 33.5 -15 46.5s-15.667 25.167 -27 36.5c-15.333 16 -33.833 28.5 -55.5 37.5s-44.167 13.5 -67.5 13.5
s-45.833 -4.5 -67.5 -13.5s-40.167 -21.5 -55.5 -37.5c-11.333 -11.333 -20.333 -23.5 -27 -36.5s-11.667 -28.5 -15 -46.5s-5.5 -39.833 -6.5 -65.5s-1.5 -57.167 -1.5 -94.5s0.5 -68.833 1.5 -94.5s3.16699 -47.5 6.5 -65.5s8.33301 -33.5 15 -46.5
s15.667 -25.167 27 -36.5c15.333 -16 33.833 -28.5 55.5 -37.5s44.167 -13.5 67.5 -13.5s45.833 4.5 67.5 13.5s40.167 21.5 55.5 37.5c11.333 11.333 20.333 23.5 27 36.5s11.667 28.5 15 46.5s5.5 39.833 6.5 65.5s1.5 57.167 1.5 94.5zM450 934l-108 -153h-66l88 153h86
v0z" />
    <glyph glyph-name="Ocircumflex" unicode="&#xef;" horiz-adv-x="650" 
d="M574 356c0 -38 -0.333008 -71.167 -1 -99.5s-3.16699 -53.666 -7.5 -75.999s-11 -42.5 -20 -60.5s-21.833 -35.333 -38.5 -52c-24 -24 -51.333 -42.333 -82 -55s-64 -19 -100 -19c-72 0 -132.667 24.667 -182 74c-16.667 16.667 -29.5 34 -38.5 52
s-15.667 38.167 -20 60.5s-6.83301 47.666 -7.5 75.999s-1 61.5 -1 99.5s0.333008 71.167 1 99.5s3.16699 53.666 7.5 75.999s11 42.5 20 60.5s21.833 35.333 38.5 52c49.333 49.333 110 74 182 74s132.667 -24.667 182 -74c16.667 -16.667 29.5 -34 38.5 -52
s15.667 -38.167 20 -60.5s6.83301 -47.666 7.5 -75.999s1 -61.5 1 -99.5zM498 356c0 37.333 -0.5 68.833 -1.5 94.5s-3.16699 47.5 -6.5 65.5s-8.33301 33.5 -15 46.5s-15.667 25.167 -27 36.5c-15.333 16 -33.833 28.5 -55.5 37.5s-44.167 13.5 -67.5 13.5
s-45.833 -4.5 -67.5 -13.5s-40.167 -21.5 -55.5 -37.5c-11.333 -11.333 -20.333 -23.5 -27 -36.5s-11.667 -28.5 -15 -46.5s-5.5 -39.833 -6.5 -65.5s-1.5 -57.167 -1.5 -94.5s0.5 -68.833 1.5 -94.5s3.16699 -47.5 6.5 -65.5s8.33301 -33.5 15 -46.5
s15.667 -25.167 27 -36.5c15.333 -16 33.833 -28.5 55.5 -37.5s44.167 -13.5 67.5 -13.5s45.833 4.5 67.5 13.5s40.167 21.5 55.5 37.5c11.333 11.333 20.333 23.5 27 36.5s11.667 28.5 15 46.5s5.5 39.833 6.5 65.5s1.5 57.167 1.5 94.5zM484 781h-69l-90 104l-90 -104h-69
l125 153h68l125 -153v0z" />
    <glyph glyph-name="Ograve" unicode="&#xf1;" horiz-adv-x="650" 
d="M574 356c0 -38 -0.333008 -71.167 -1 -99.5s-3.16699 -53.666 -7.5 -75.999s-11 -42.5 -20 -60.5s-21.833 -35.333 -38.5 -52c-24 -24 -51.333 -42.333 -82 -55s-64 -19 -100 -19c-72 0 -132.667 24.667 -182 74c-16.667 16.667 -29.5 34 -38.5 52
s-15.667 38.167 -20 60.5s-6.83301 47.666 -7.5 75.999s-1 61.5 -1 99.5s0.333008 71.167 1 99.5s3.16699 53.666 7.5 75.999s11 42.5 20 60.5s21.833 35.333 38.5 52c49.333 49.333 110 74 182 74s132.667 -24.667 182 -74c16.667 -16.667 29.5 -34 38.5 -52
s15.667 -38.167 20 -60.5s6.83301 -47.666 7.5 -75.999s1 -61.5 1 -99.5zM498 356c0 37.333 -0.5 68.833 -1.5 94.5s-3.16699 47.5 -6.5 65.5s-8.33301 33.5 -15 46.5s-15.667 25.167 -27 36.5c-15.333 16 -33.833 28.5 -55.5 37.5s-44.167 13.5 -67.5 13.5
s-45.833 -4.5 -67.5 -13.5s-40.167 -21.5 -55.5 -37.5c-11.333 -11.333 -20.333 -23.5 -27 -36.5s-11.667 -28.5 -15 -46.5s-5.5 -39.833 -6.5 -65.5s-1.5 -57.167 -1.5 -94.5s0.5 -68.833 1.5 -94.5s3.16699 -47.5 6.5 -65.5s8.33301 -33.5 15 -46.5
s15.667 -25.167 27 -36.5c15.333 -16 33.833 -28.5 55.5 -37.5s44.167 -13.5 67.5 -13.5s45.833 4.5 67.5 13.5s40.167 21.5 55.5 37.5c11.333 11.333 20.333 23.5 27 36.5s11.667 28.5 15 46.5s5.5 39.833 6.5 65.5s1.5 57.167 1.5 94.5zM374 781h-66l-108 153h86l88 -153
v0z" />
    <glyph glyph-name="Uacute" unicode="&#xf2;" horiz-adv-x="682" 
d="M590 235c0 -35.333 -6.16895 -67.833 -18.502 -97.5s-29.666 -55.167 -51.999 -76.5s-48.666 -37.833 -78.999 -49.5s-63.5 -17.5 -99.5 -17.5s-69.167 5.83301 -99.5 17.5s-56.5 28.167 -78.5 49.5s-39.167 46.833 -51.5 76.5s-18.5 62.167 -18.5 97.5v477h76v-471
c0 -26.667 4.16699 -51.167 12.5 -73.5s20 -41.166 35 -56.499s33 -27.333 54 -36s44.5 -13 70.5 -13s49.667 4.33301 71 13s39.5 20.667 54.5 36s26.667 34.166 35 56.499s12.5 46.833 12.5 73.5v471h76v-477v0zM465.998 934l-108 -153h-66l88 153h86v0z" />
    <glyph glyph-name="Ucircumflex" unicode="&#xf3;" horiz-adv-x="682" 
d="M590 235c0 -35.333 -6.16895 -67.833 -18.502 -97.5s-29.666 -55.167 -51.999 -76.5s-48.666 -37.833 -78.999 -49.5s-63.5 -17.5 -99.5 -17.5s-69.167 5.83301 -99.5 17.5s-56.5 28.167 -78.5 49.5s-39.167 46.833 -51.5 76.5s-18.5 62.167 -18.5 97.5v477h76v-471
c0 -26.667 4.16699 -51.167 12.5 -73.5s20 -41.166 35 -56.499s33 -27.333 54 -36s44.5 -13 70.5 -13s49.667 4.33301 71 13s39.5 20.667 54.5 36s26.667 34.166 35 56.499s12.5 46.833 12.5 73.5v471h76v-477v0zM499.998 781h-69l-90 104l-90 -104h-69l125 153h68l125 -153
v0z" />
    <glyph glyph-name="Ugrave" unicode="&#xf4;" horiz-adv-x="682" 
d="M590 235c0 -35.333 -6.16895 -67.833 -18.502 -97.5s-29.666 -55.167 -51.999 -76.5s-48.666 -37.833 -78.999 -49.5s-63.5 -17.5 -99.5 -17.5s-69.167 5.83301 -99.5 17.5s-56.5 28.167 -78.5 49.5s-39.167 46.833 -51.5 76.5s-18.5 62.167 -18.5 97.5v477h76v-471
c0 -26.667 4.16699 -51.167 12.5 -73.5s20 -41.166 35 -56.499s33 -27.333 54 -36s44.5 -13 70.5 -13s49.667 4.33301 71 13s39.5 20.667 54.5 36s26.667 34.166 35 56.499s12.5 46.833 12.5 73.5v471h76v-477v0zM389.998 781h-66l-108 153h86l88 -153v0z" />
    <glyph glyph-name="dotlessi" unicode="&#xf5;" horiz-adv-x="253" 
d="M162 0h-72v492h72v-492v0z" />
    <glyph glyph-name="circumflex" unicode="&#xf6;" horiz-adv-x="500" 
d="M409 594h-69l-90 104l-90 -104h-69l125 153h68l125 -153v0z" />
    <glyph glyph-name="tilde" unicode="&#xf7;" horiz-adv-x="500" 
d="M407 659c-22.667 -22.667 -41.332 -36.835 -55.999 -42.502s-27.667 -8.5 -39 -8.5c-14 0 -26.333 2 -37 6s-22 9.66699 -34 17c-9.33301 5.33301 -18.5 10.166 -27.5 14.499s-18.5 6.5 -28.5 6.5c-4 0 -7.83301 -0.333008 -11.5 -1s-7.83398 -2 -12.501 -4
s-9.83398 -5.16699 -15.501 -9.5s-12.167 -10.166 -19.5 -17.499l-37 36c11.333 11.333 21.5 20.333 30.5 27s17.167 11.834 24.5 15.501s14.333 6 21 7s13 1.5 19 1.5c14.667 0 27 -2.16699 37 -6.5s21.333 -10.166 34 -17.499c10.667 -6.66699 20.167 -11.667 28.5 -15
s17.5 -5 27.5 -5c7.33301 0 15.333 1.66699 24 5s20.334 12.333 35.001 27l37 -36v0z" />
    <glyph glyph-name="macron" unicode="&#xf8;" horiz-adv-x="500" 
d="M401 614h-302v57h302v-57v0z" />
    <glyph glyph-name="breve" unicode="&#xf9;" horiz-adv-x="500" 
d="M415 727c-8 -92.667 -62.332 -139 -162.999 -139c-103.333 0 -159 46.333 -167 139h58c3.33301 -26 14.666 -46.167 33.999 -60.5s44.333 -21.5 75 -21.5s55.5 7.16699 74.5 21.5s30.167 34.5 33.5 60.5h55v0z" />
    <glyph glyph-name="dotaccent" unicode="&#xfa;" horiz-adv-x="500" 
d="M290 634h-80v74h80v-74v0z" />
    <glyph glyph-name="ring" unicode="&#xfb;" horiz-adv-x="500" 
d="M368 687c0 -16 -3.16699 -31.333 -9.5 -46s-14.833 -27.334 -25.5 -38.001s-23.167 -19.167 -37.5 -25.5s-29.5 -9.5 -45.5 -9.5s-31.167 3.16699 -45.5 9.5s-26.833 14.833 -37.5 25.5s-19.167 23.334 -25.5 38.001s-9.5 30 -9.5 46s3.16699 31.167 9.5 45.5
s14.833 26.833 25.5 37.5s23.167 19.167 37.5 25.5s29.5 9.5 45.5 9.5s31.167 -3 45.5 -9s26.833 -14.333 37.5 -25s19.167 -23.167 25.5 -37.5s9.5 -29.833 9.5 -46.5zM319 687c0 19.333 -6.66699 35.5 -20 48.5s-29.666 19.5 -48.999 19.5s-35.666 -6.5 -48.999 -19.5
s-20 -29.167 -20 -48.5s6.66699 -35.666 20 -48.999s29.666 -20 48.999 -20s35.666 6.66699 48.999 20s20 29.666 20 48.999z" />
    <glyph glyph-name="cedilla" unicode="&#xfc;" horiz-adv-x="500" 
d="M313 -67l-59 -149h-79l71 149h67v0z" />
    <glyph glyph-name="hungarumlaut" unicode="&#xfd;" horiz-adv-x="500" 
d="M447 747l-109 -153h-65l89 153h85v0zM284 747l-108 -153h-66l89 153h85v0z" />
    <glyph glyph-name="ogonek" unicode="&#xfe;" horiz-adv-x="500" 
d="M323 -216h-78l-59 149h66l71 -149v0z" />
    <glyph glyph-name="caron" unicode="&#xff;" horiz-adv-x="500" 
d="M409 747l-125 -153h-68l-125 153h69l90 -105l90 105h69v0z" />
    <glyph glyph-name="aring" unicode="&#x152;" horiz-adv-x="526" 
d="M369 0l-0.000976562 47c-10 -10 -20 -18.333 -30 -25s-20.5 -12.167 -31.5 -16.5s-23 -7.33301 -36 -9s-27.833 -2.5 -44.5 -2.5c-34 0 -61.833 3.5 -83.5 10.5s-40.167 18.5 -55.5 34.5c-12 12 -21.167 26.833 -27.5 44.5s-9.5 36.167 -9.5 55.5
c0 43.333 14.5 77.833 43.5 103.5s71.167 38.5 126.5 38.5h148v47c0 36 -9.66699 63 -29 81s-51.666 27 -96.999 27c-32 0 -57 -4.16699 -75 -12.5s-34.333 -22.833 -49 -43.5l-49 45c22 28.667 46.5 48 73.5 58s60.5 15 100.5 15c66.667 0 116.167 -13.833 148.5 -41.5
s48.5 -68.5 48.5 -122.5v-334h-72zM368.999 227l-137.998 0.00195312c-73.333 0 -110 -29 -110 -87c0 -28.667 9 -49.834 27 -63.501s46.667 -20.5 86 -20.5c21.333 0 41.166 1.66699 59.499 5s35.166 12.666 50.499 27.999c16.667 16 25 44.333 25 85v53zM370.001 687.002
c0 -16 -3.16699 -31.333 -9.5 -46s-14.833 -27.334 -25.5 -38.001s-23.167 -19.167 -37.5 -25.5s-29.5 -9.5 -45.5 -9.5s-31.167 3.16699 -45.5 9.5s-26.833 14.833 -37.5 25.5s-19.167 23.334 -25.5 38.001s-9.5 30 -9.5 46s3.16699 31.167 9.5 45.5
s14.833 26.833 25.5 37.5s23.167 19.167 37.5 25.5s29.5 9.5 45.5 9.5s31.167 -3 45.5 -9s26.833 -14.333 37.5 -25s19.167 -23.167 25.5 -37.5s9.5 -29.833 9.5 -46.5zM321.001 687.002c0 19.333 -6.66699 35.5 -20 48.5s-29.666 19.5 -48.999 19.5
s-35.666 -6.5 -48.999 -19.5s-20 -29.167 -20 -48.5s6.66699 -35.666 20 -48.999s29.666 -20 48.999 -20s35.666 6.66699 48.999 20s20 29.666 20 48.999z" />
    <glyph glyph-name="uacute" unicode="&#x153;" horiz-adv-x="563" 
d="M401 0l0.00195312 55c-17.333 -20 -37.833 -35.167 -61.5 -45.5s-49.5 -15.5 -77.5 -15.5c-54 0 -96.333 15.333 -127 46c-17.333 17.333 -30 37.5 -38 60.5s-12 48.833 -12 77.5v314h72v-303c0 -44 10.667 -76.833 32 -98.5s50.666 -32.5 87.999 -32.5
s67.166 11 89.499 33s33.5 54.667 33.5 98v303h72v-492h-71zM403.002 747l-108 -153h-66l88 153h86v0z" />
    <glyph glyph-name="adieresis" unicode="&#x160;" horiz-adv-x="526" 
d="M369 0l-0.000976562 47c-10 -10 -20 -18.333 -30 -25s-20.5 -12.167 -31.5 -16.5s-23 -7.33301 -36 -9s-27.833 -2.5 -44.5 -2.5c-34 0 -61.833 3.5 -83.5 10.5s-40.167 18.5 -55.5 34.5c-12 12 -21.167 26.833 -27.5 44.5s-9.5 36.167 -9.5 55.5
c0 43.333 14.5 77.833 43.5 103.5s71.167 38.5 126.5 38.5h148v47c0 36 -9.66699 63 -29 81s-51.666 27 -96.999 27c-32 0 -57 -4.16699 -75 -12.5s-34.333 -22.833 -49 -43.5l-49 45c22 28.667 46.5 48 73.5 58s60.5 15 100.5 15c66.667 0 116.167 -13.833 148.5 -41.5
s48.5 -68.5 48.5 -122.5v-334h-72zM368.999 227l-137.998 0.00195312c-73.333 0 -110 -29 -110 -87c0 -28.667 9 -49.834 27 -63.501s46.667 -20.5 86 -20.5c21.333 0 41.166 1.66699 59.499 5s35.166 12.666 50.499 27.999c16.667 16 25 44.333 25 85v53zM394.001 602.002
h-72v89h72v-89v0zM182.001 602.002h-72v89h72v-89v0z" />
    <glyph glyph-name="odieresis" unicode="&#x161;" horiz-adv-x="530" 
d="M466 246c0 -18.667 -0.833008 -37.168 -2.5 -55.501s-4.66699 -35.666 -9 -51.999s-10.333 -32 -18 -47s-17.834 -28.833 -30.501 -41.5c-17.333 -17.333 -37.666 -31 -60.999 -41s-50 -15 -80 -15s-56.667 5 -80 15s-43.666 23.667 -60.999 41
c-24.667 25.333 -40.834 54.833 -48.501 88.5s-11.5 69.5 -11.5 107.5s3.83301 73.833 11.5 107.5s23.834 63.167 48.501 88.5c17.333 17.333 37.666 31 60.999 41s50 15 80 15s56.667 -5 80 -15s43.666 -23.667 60.999 -41c12.667 -12.667 22.834 -26.5 30.501 -41.5
s13.667 -30.667 18 -47s7.33301 -33.5 9 -51.5s2.5 -36.667 2.5 -56zM394 245.999c0 14 -0.333008 28 -1 42s-2.33398 27.667 -5.00098 41s-6.5 26 -11.5 38s-12.167 22.333 -21.5 31c-24 24 -54 36 -90 36c-35.333 0 -65 -12 -89 -36
c-8.66699 -8.66699 -15.667 -19 -21 -31s-9.5 -24.667 -12.5 -38s-4.83301 -27 -5.5 -41s-1 -28 -1 -42s0.333008 -28 1 -42s2.5 -27.667 5.5 -41s7.16699 -25.833 12.5 -37.5s12.333 -22.167 21 -31.5c24 -24 53.667 -36 89 -36c36 0 66 12 90 36
c9.33301 9.33301 16.5 19.833 21.5 31.5s8.83301 24.167 11.5 37.5s4.33398 27 5.00098 41s1 28 1 42zM407 601.999h-72v89h72v-89v0zM195 601.999h-72v89h72v-89v0z" />
    <glyph glyph-name="udieresis" unicode="&#x178;" horiz-adv-x="563" 
d="M401 0l0.00195312 55c-17.333 -20 -37.833 -35.167 -61.5 -45.5s-49.5 -15.5 -77.5 -15.5c-54 0 -96.333 15.333 -127 46c-17.333 17.333 -30 37.5 -38 60.5s-12 48.833 -12 77.5v314h72v-303c0 -44 10.667 -76.833 32 -98.5s50.666 -32.5 87.999 -32.5
s67.166 11 89.499 33s33.5 54.667 33.5 98v303h72v-492h-71zM420.002 602h-72v89h72v-89v0zM208.002 602h-72v89h72v-89v0z" />
    <glyph glyph-name="Eacute" unicode="&#x192;" horiz-adv-x="600" 
d="M545 0h-442v712h442v-68h-366v-251h312v-68h-312v-257h366v-68v0zM438 934l-108 -153h-66l88 153h86v0z" />
    <glyph glyph-name="agrave" unicode="&#x2c6;" horiz-adv-x="526" 
d="M369 0l-0.000976562 47c-10 -10 -20 -18.333 -30 -25s-20.5 -12.167 -31.5 -16.5s-23 -7.33301 -36 -9s-27.833 -2.5 -44.5 -2.5c-34 0 -61.833 3.5 -83.5 10.5s-40.167 18.5 -55.5 34.5c-12 12 -21.167 26.833 -27.5 44.5s-9.5 36.167 -9.5 55.5
c0 43.333 14.5 77.833 43.5 103.5s71.167 38.5 126.5 38.5h148v47c0 36 -9.66699 63 -29 81s-51.666 27 -96.999 27c-32 0 -57 -4.16699 -75 -12.5s-34.333 -22.833 -49 -43.5l-49 45c22 28.667 46.5 48 73.5 58s60.5 15 100.5 15c66.667 0 116.167 -13.833 148.5 -41.5
s48.5 -68.5 48.5 -122.5v-334h-72zM368.999 227l-137.998 0.00195312c-73.333 0 -110 -29 -110 -87c0 -28.667 9 -49.834 27 -63.501s46.667 -20.5 86 -20.5c21.333 0 41.166 1.66699 59.499 5s35.166 12.666 50.499 27.999c16.667 16 25 44.333 25 85v53zM301.001 594.002
h-66l-108 153h86l88 -153v0z" />
    <glyph glyph-name="ograve" unicode="&#x2dc;" horiz-adv-x="530" 
d="M466 246c0 -18.667 -0.833008 -37.168 -2.5 -55.501s-4.66699 -35.666 -9 -51.999s-10.333 -32 -18 -47s-17.834 -28.833 -30.501 -41.5c-17.333 -17.333 -37.666 -31 -60.999 -41s-50 -15 -80 -15s-56.667 5 -80 15s-43.666 23.667 -60.999 41
c-24.667 25.333 -40.834 54.833 -48.501 88.5s-11.5 69.5 -11.5 107.5s3.83301 73.833 11.5 107.5s23.834 63.167 48.501 88.5c17.333 17.333 37.666 31 60.999 41s50 15 80 15s56.667 -5 80 -15s43.666 -23.667 60.999 -41c12.667 -12.667 22.834 -26.5 30.501 -41.5
s13.667 -30.667 18 -47s7.33301 -33.5 9 -51.5s2.5 -36.667 2.5 -56zM394 245.999c0 14 -0.333008 28 -1 42s-2.33398 27.667 -5.00098 41s-6.5 26 -11.5 38s-12.167 22.333 -21.5 31c-24 24 -54 36 -90 36c-35.333 0 -65 -12 -89 -36
c-8.66699 -8.66699 -15.667 -19 -21 -31s-9.5 -24.667 -12.5 -38s-4.83301 -27 -5.5 -41s-1 -28 -1 -42s0.333008 -28 1 -42s2.5 -27.667 5.5 -41s7.16699 -25.833 12.5 -37.5s12.333 -22.167 21 -31.5c24 -24 53.667 -36 89 -36c36 0 66 12 90 36
c9.33301 9.33301 16.5 19.833 21.5 31.5s8.83301 24.167 11.5 37.5s4.33398 27 5.00098 41s1 28 1 42zM304 593.999h-66l-108 153h86l88 -153v0z" />
    <glyph glyph-name="ntilde" unicode="&#x2013;" horiz-adv-x="562" 
d="M405 0v303c0 44 -10.833 76.833 -32.5 98.5s-51.167 32.5 -88.5 32.5s-67 -11 -89 -33s-33 -54.667 -33 -98v-303h-72v492h72v-54c35.333 40 81.333 60 138 60c53.333 0 95.333 -15.333 126 -46c34 -33.333 51 -79 51 -137v-315h-72zM442 659
c-22.667 -22.667 -41.332 -36.835 -55.999 -42.502s-27.667 -8.5 -39 -8.5c-14 0 -26.333 2 -37 6s-22 9.66699 -34 17c-9.33301 5.33301 -18.5 10.166 -27.5 14.499s-18.5 6.5 -28.5 6.5c-4 0 -7.83301 -0.333008 -11.5 -1s-7.83398 -2 -12.501 -4
s-9.83398 -5.16699 -15.501 -9.5s-12.167 -10.166 -19.5 -17.499l-37 36c11.333 11.333 21.5 20.333 30.5 27s17.167 11.834 24.5 15.501s14.333 6 21 7s13 1.5 19 1.5c14.667 0 27 -2.16699 37 -6.5s21.333 -10.166 34 -17.499c10.667 -6.66699 20.167 -11.667 28.5 -15
s17.5 -5 27.5 -5c7.33301 0 15.333 1.66699 24 5s20.334 12.333 35.001 27l37 -36v0z" />
    <glyph glyph-name="oacute" unicode="&#x2014;" horiz-adv-x="530" 
d="M466 246c0 -18.667 -0.833008 -37.168 -2.5 -55.501s-4.66699 -35.666 -9 -51.999s-10.333 -32 -18 -47s-17.834 -28.833 -30.501 -41.5c-17.333 -17.333 -37.666 -31 -60.999 -41s-50 -15 -80 -15s-56.667 5 -80 15s-43.666 23.667 -60.999 41
c-24.667 25.333 -40.834 54.833 -48.501 88.5s-11.5 69.5 -11.5 107.5s3.83301 73.833 11.5 107.5s23.834 63.167 48.501 88.5c17.333 17.333 37.666 31 60.999 41s50 15 80 15s56.667 -5 80 -15s43.666 -23.667 60.999 -41c12.667 -12.667 22.834 -26.5 30.501 -41.5
s13.667 -30.667 18 -47s7.33301 -33.5 9 -51.5s2.5 -36.667 2.5 -56zM394 245.999c0 14 -0.333008 28 -1 42s-2.33398 27.667 -5.00098 41s-6.5 26 -11.5 38s-12.167 22.333 -21.5 31c-24 24 -54 36 -90 36c-35.333 0 -65 -12 -89 -36
c-8.66699 -8.66699 -15.667 -19 -21 -31s-9.5 -24.667 -12.5 -38s-4.83301 -27 -5.5 -41s-1 -28 -1 -42s0.333008 -28 1 -42s2.5 -27.667 5.5 -41s7.16699 -25.833 12.5 -37.5s12.333 -22.167 21 -31.5c24 -24 53.667 -36 89 -36c36 0 66 12 90 36
c9.33301 9.33301 16.5 19.833 21.5 31.5s8.83301 24.167 11.5 37.5s4.33398 27 5.00098 41s1 28 1 42zM390 746.999l-108 -153h-66l88 153h86v0z" />
    <glyph glyph-name="edieresis" unicode="&#x2018;" horiz-adv-x="530" 
d="M135 227c0 -54 12.333 -95.8359 37 -125.503s60.667 -44.5 108 -44.5c28.667 0 52.5 4.5 71.5 13.5s38.167 23.167 57.5 42.5l49 -43c-12.667 -12.667 -25.167 -23.667 -37.5 -33s-25.5 -17.166 -39.5 -23.499s-29.333 -11.166 -46 -14.499s-35.667 -5 -57 -5
c-32.667 0 -62.167 5 -88.5 15s-48.833 25.333 -67.5 46s-33.167 46.834 -43.5 78.501s-15.5 69.167 -15.5 112.5c0 80 18 142 54 186s85.333 66 148 66c64 0 113.667 -21.333 149 -64s53 -100.667 53 -174v-33h-332zM395 280.997
c-0.666992 20 -1.99805 35.334 -3.99805 46.001s-5.66699 22.667 -11 36c-9.33301 22.667 -24.333 40.667 -45 54s-44 20 -70 20s-49.333 -6.66699 -70 -20s-35.667 -31.333 -45 -54c-2.66699 -6.66699 -4.83398 -12.834 -6.50098 -18.501s-3 -11.5 -4 -17.5
s-1.83301 -12.667 -2.5 -20s-1.33398 -16 -2.00098 -26h260v0zM410.002 601.998h-72v89h72v-89v0zM198.002 601.998h-72v89h72v-89v0z" />
    <glyph glyph-name="iacute" unicode="&#x2019;" horiz-adv-x="253" 
d="M162 0h-72v492h72v-492v0zM241 747l-108 -153h-66l88 153h86v0z" />
    <glyph glyph-name="Ccedilla" unicode="&#x201a;" horiz-adv-x="637" 
d="M572 206c-10 -59.333 -33.001 -106.831 -69.001 -142.498s-80.333 -57.834 -133 -66.501v-107h-70v106c-30 2.66699 -58.333 10 -85 22s-50.667 28.667 -72 50c-16.667 16.667 -29.5 34 -38.5 52s-15.667 38.167 -20 60.5s-6.83301 47.666 -7.5 75.999s-1 61.5 -1 99.5
s0.333008 71.167 1 99.5s3.16699 53.666 7.5 75.999s11 42.5 20 60.5s21.833 35.333 38.5 52c24 24 51.5 42.333 82.5 55s64.167 19 99.5 19c32 0 61.667 -4.83301 89 -14.5s51.833 -23.5 73.5 -41.5s39.667 -40.167 54 -66.5s24.5 -56.166 30.5 -89.499h-78
c-9.33301 44 -28.666 79 -57.999 105s-66.333 39 -111 39c-23.333 0 -45.833 -4.33301 -67.5 -13s-40.167 -21 -55.5 -37c-11.333 -11.333 -20.333 -23.5 -27 -36.5s-11.667 -28.667 -15 -47s-5.5 -40.333 -6.5 -66s-1.5 -57.167 -1.5 -94.5s0.5 -68.833 1.5 -94.5
s3.16699 -47.667 6.5 -66s8.33301 -34 15 -47s15.667 -25.167 27 -36.5c15.333 -16 33.833 -28.333 55.5 -37s44.167 -13 67.5 -13c44.667 0 82 13 112 39s49.667 61 59 105h76v0z" />
    <glyph glyph-name="igrave" unicode="&#x201c;" horiz-adv-x="253" 
d="M162 0h-72v492h72v-492v0zM193 594h-66l-108 153h86l88 -153v0z" />
    <glyph glyph-name="icircumflex" unicode="&#x201d;" horiz-adv-x="253" 
d="M162 0h-72v492h72v-492v0zM286 594h-69l-90 104l-90 -104h-69l125 153h68l125 -153v0z" />
    <glyph glyph-name="Ntilde" unicode="&#x201e;" horiz-adv-x="732" 
d="M629 0h-72l-378 571v-571h-76v712h72l378 -569v569h76v-712v0zM523 846c-22.667 -22.667 -41.332 -36.835 -55.999 -42.502s-27.667 -8.5 -39 -8.5c-14 0 -26.333 2 -37 6s-22 9.66699 -34 17c-9.33301 5.33301 -18.5 10.166 -27.5 14.499s-18.5 6.5 -28.5 6.5
c-4 0 -7.83301 -0.333008 -11.5 -1s-7.83398 -2 -12.501 -4s-9.83398 -5.16699 -15.501 -9.5s-12.167 -10.166 -19.5 -17.499l-37 36c11.333 11.333 21.5 20.333 30.5 27s17.167 11.834 24.5 15.501s14.333 6 21 7s13 1.5 19 1.5c14.667 0 27 -2.16699 37 -6.5
s21.333 -10.166 34 -17.499c10.667 -6.66699 20.167 -11.667 28.5 -15s17.5 -5 27.5 -5c7.33301 0 15.333 1.66699 24 5s20.334 12.333 35.001 27l37 -36v0z" />
    <glyph glyph-name="Udieresis" unicode="&#x2020;" horiz-adv-x="682" 
d="M590 235c0 -35.333 -6.16895 -67.833 -18.502 -97.5s-29.666 -55.167 -51.999 -76.5s-48.666 -37.833 -78.999 -49.5s-63.5 -17.5 -99.5 -17.5s-69.167 5.83301 -99.5 17.5s-56.5 28.167 -78.5 49.5s-39.167 46.833 -51.5 76.5s-18.5 62.167 -18.5 97.5v477h76v-471
c0 -26.667 4.16699 -51.167 12.5 -73.5s20 -41.166 35 -56.499s33 -27.333 54 -36s44.5 -13 70.5 -13s49.667 4.33301 71 13s39.5 20.667 54.5 36s26.667 34.166 35 56.499s12.5 46.833 12.5 73.5v471h76v-477v0zM482.998 789h-72v89h72v-89v0zM270.998 789h-72v89h72v-89v0
z" />
    <glyph glyph-name="aacute" unicode="&#x2021;" horiz-adv-x="526" 
d="M369 0l-0.000976562 47c-10 -10 -20 -18.333 -30 -25s-20.5 -12.167 -31.5 -16.5s-23 -7.33301 -36 -9s-27.833 -2.5 -44.5 -2.5c-34 0 -61.833 3.5 -83.5 10.5s-40.167 18.5 -55.5 34.5c-12 12 -21.167 26.833 -27.5 44.5s-9.5 36.167 -9.5 55.5
c0 43.333 14.5 77.833 43.5 103.5s71.167 38.5 126.5 38.5h148v47c0 36 -9.66699 63 -29 81s-51.666 27 -96.999 27c-32 0 -57 -4.16699 -75 -12.5s-34.333 -22.833 -49 -43.5l-49 45c22 28.667 46.5 48 73.5 58s60.5 15 100.5 15c66.667 0 116.167 -13.833 148.5 -41.5
s48.5 -68.5 48.5 -122.5v-334h-72zM368.999 227l-137.998 0.00195312c-73.333 0 -110 -29 -110 -87c0 -28.667 9 -49.834 27 -63.501s46.667 -20.5 86 -20.5c21.333 0 41.166 1.66699 59.499 5s35.166 12.666 50.499 27.999c16.667 16 25 44.333 25 85v53zM377.001 747.002
l-108 -153h-66l88 153h86v0z" />
    <glyph glyph-name="idieresis" unicode="&#x2022;" horiz-adv-x="253" 
d="M162 0h-72v492h72v-492v0zM267 602h-72v89h72v-89v0zM55 602h-72v89h72v-89v0z" />
    <glyph glyph-name="Odieresis" unicode="&#x2026;" horiz-adv-x="650" 
d="M574 356c0 -38 -0.333008 -71.167 -1 -99.5s-3.16699 -53.666 -7.5 -75.999s-11 -42.5 -20 -60.5s-21.833 -35.333 -38.5 -52c-24 -24 -51.333 -42.333 -82 -55s-64 -19 -100 -19c-72 0 -132.667 24.667 -182 74c-16.667 16.667 -29.5 34 -38.5 52
s-15.667 38.167 -20 60.5s-6.83301 47.666 -7.5 75.999s-1 61.5 -1 99.5s0.333008 71.167 1 99.5s3.16699 53.666 7.5 75.999s11 42.5 20 60.5s21.833 35.333 38.5 52c49.333 49.333 110 74 182 74s132.667 -24.667 182 -74c16.667 -16.667 29.5 -34 38.5 -52
s15.667 -38.167 20 -60.5s6.83301 -47.666 7.5 -75.999s1 -61.5 1 -99.5zM498 356c0 37.333 -0.5 68.833 -1.5 94.5s-3.16699 47.5 -6.5 65.5s-8.33301 33.5 -15 46.5s-15.667 25.167 -27 36.5c-15.333 16 -33.833 28.5 -55.5 37.5s-44.167 13.5 -67.5 13.5
s-45.833 -4.5 -67.5 -13.5s-40.167 -21.5 -55.5 -37.5c-11.333 -11.333 -20.333 -23.5 -27 -36.5s-11.667 -28.5 -15 -46.5s-5.5 -39.833 -6.5 -65.5s-1.5 -57.167 -1.5 -94.5s0.5 -68.833 1.5 -94.5s3.16699 -47.5 6.5 -65.5s8.33301 -33.5 15 -46.5
s15.667 -25.167 27 -36.5c15.333 -16 33.833 -28.5 55.5 -37.5s44.167 -13.5 67.5 -13.5s45.833 4.5 67.5 13.5s40.167 21.5 55.5 37.5c11.333 11.333 20.333 23.5 27 36.5s11.667 28.5 15 46.5s5.5 39.833 6.5 65.5s1.5 57.167 1.5 94.5zM467 789h-72v89h72v-89v0zM255 789
h-72v89h72v-89v0z" />
    <glyph glyph-name="acircumflex" unicode="&#x2030;" horiz-adv-x="526" 
d="M369 0l-0.000976562 47c-10 -10 -20 -18.333 -30 -25s-20.5 -12.167 -31.5 -16.5s-23 -7.33301 -36 -9s-27.833 -2.5 -44.5 -2.5c-34 0 -61.833 3.5 -83.5 10.5s-40.167 18.5 -55.5 34.5c-12 12 -21.167 26.833 -27.5 44.5s-9.5 36.167 -9.5 55.5
c0 43.333 14.5 77.833 43.5 103.5s71.167 38.5 126.5 38.5h148v47c0 36 -9.66699 63 -29 81s-51.666 27 -96.999 27c-32 0 -57 -4.16699 -75 -12.5s-34.333 -22.833 -49 -43.5l-49 45c22 28.667 46.5 48 73.5 58s60.5 15 100.5 15c66.667 0 116.167 -13.833 148.5 -41.5
s48.5 -68.5 48.5 -122.5v-334h-72zM368.999 227l-137.998 0.00195312c-73.333 0 -110 -29 -110 -87c0 -28.667 9 -49.834 27 -63.501s46.667 -20.5 86 -20.5c21.333 0 41.166 1.66699 59.499 5s35.166 12.666 50.499 27.999c16.667 16 25 44.333 25 85v53zM411.001 594.002
h-69l-90 104l-90 -104h-69l125 153h68l125 -153v0z" />
    <glyph glyph-name="atilde" unicode="&#x2039;" horiz-adv-x="526" 
d="M369 0l-0.000976562 47c-10 -10 -20 -18.333 -30 -25s-20.5 -12.167 -31.5 -16.5s-23 -7.33301 -36 -9s-27.833 -2.5 -44.5 -2.5c-34 0 -61.833 3.5 -83.5 10.5s-40.167 18.5 -55.5 34.5c-12 12 -21.167 26.833 -27.5 44.5s-9.5 36.167 -9.5 55.5
c0 43.333 14.5 77.833 43.5 103.5s71.167 38.5 126.5 38.5h148v47c0 36 -9.66699 63 -29 81s-51.666 27 -96.999 27c-32 0 -57 -4.16699 -75 -12.5s-34.333 -22.833 -49 -43.5l-49 45c22 28.667 46.5 48 73.5 58s60.5 15 100.5 15c66.667 0 116.167 -13.833 148.5 -41.5
s48.5 -68.5 48.5 -122.5v-334h-72zM368.999 227l-137.998 0.00195312c-73.333 0 -110 -29 -110 -87c0 -28.667 9 -49.834 27 -63.501s46.667 -20.5 86 -20.5c21.333 0 41.166 1.66699 59.499 5s35.166 12.666 50.499 27.999c16.667 16 25 44.333 25 85v53zM409.001 659.002
c-22.667 -22.667 -41.332 -36.835 -55.999 -42.502s-27.667 -8.5 -39 -8.5c-14 0 -26.333 2 -37 6s-22 9.66699 -34 17c-9.33301 5.33301 -18.5 10.166 -27.5 14.499s-18.5 6.5 -28.5 6.5c-4 0 -7.83301 -0.333008 -11.5 -1s-7.83398 -2 -12.501 -4
s-9.83398 -5.16699 -15.501 -9.5s-12.167 -10.166 -19.5 -17.499l-37 36c11.333 11.333 21.5 20.333 30.5 27s17.167 11.834 24.5 15.501s14.333 6 21 7s13 1.5 19 1.5c14.667 0 27 -2.16699 37 -6.5s21.333 -10.166 34 -17.499c10.667 -6.66699 20.167 -11.667 28.5 -15
s17.5 -5 27.5 -5c7.33301 0 15.333 1.66699 24 5s20.334 12.333 35.001 27l37 -36v0z" />
    <glyph glyph-name="otilde" unicode="&#x203a;" horiz-adv-x="530" 
d="M466 246c0 -18.667 -0.833008 -37.168 -2.5 -55.501s-4.66699 -35.666 -9 -51.999s-10.333 -32 -18 -47s-17.834 -28.833 -30.501 -41.5c-17.333 -17.333 -37.666 -31 -60.999 -41s-50 -15 -80 -15s-56.667 5 -80 15s-43.666 23.667 -60.999 41
c-24.667 25.333 -40.834 54.833 -48.501 88.5s-11.5 69.5 -11.5 107.5s3.83301 73.833 11.5 107.5s23.834 63.167 48.501 88.5c17.333 17.333 37.666 31 60.999 41s50 15 80 15s56.667 -5 80 -15s43.666 -23.667 60.999 -41c12.667 -12.667 22.834 -26.5 30.501 -41.5
s13.667 -30.667 18 -47s7.33301 -33.5 9 -51.5s2.5 -36.667 2.5 -56zM394 245.999c0 14 -0.333008 28 -1 42s-2.33398 27.667 -5.00098 41s-6.5 26 -11.5 38s-12.167 22.333 -21.5 31c-24 24 -54 36 -90 36c-35.333 0 -65 -12 -89 -36
c-8.66699 -8.66699 -15.667 -19 -21 -31s-9.5 -24.667 -12.5 -38s-4.83301 -27 -5.5 -41s-1 -28 -1 -42s0.333008 -28 1 -42s2.5 -27.667 5.5 -41s7.16699 -25.833 12.5 -37.5s12.333 -22.167 21 -31.5c24 -24 53.667 -36 89 -36c36 0 66 12 90 36
c9.33301 9.33301 16.5 19.833 21.5 31.5s8.83301 24.167 11.5 37.5s4.33398 27 5.00098 41s1 28 1 42zM422 658.999c-22.667 -22.667 -41.332 -36.835 -55.999 -42.502s-27.667 -8.5 -39 -8.5c-14 0 -26.333 2 -37 6s-22 9.66699 -34 17
c-9.33301 5.33301 -18.5 10.166 -27.5 14.499s-18.5 6.5 -28.5 6.5c-4 0 -7.83301 -0.333008 -11.5 -1s-7.83398 -2 -12.501 -4s-9.83398 -5.16699 -15.501 -9.5s-12.167 -10.166 -19.5 -17.499l-37 36c11.333 11.333 21.5 20.333 30.5 27s17.167 11.834 24.5 15.501
s14.333 6 21 7s13 1.5 19 1.5c14.667 0 27 -2.16699 37 -6.5s21.333 -10.166 34 -17.499c10.667 -6.66699 20.167 -11.667 28.5 -15s17.5 -5 27.5 -5c7.33301 0 15.333 1.66699 24 5s20.334 12.333 35.001 27l37 -36v0z" />
    <glyph glyph-name="Adieresis" unicode="&#x20ac;" horiz-adv-x="611" 
d="M599 0h-81l-57 161h-311l-57 -161h-81l262 712h64l261 -712v0zM439 227l-132 376l-134 -376h266v0zM444 789h-72v89h72v-89v0zM232 789h-72v89h72v-89v0z" />
    <glyph glyph-name="ocircumflex" unicode="&#x2122;" horiz-adv-x="530" 
d="M466 246c0 -18.667 -0.833008 -37.168 -2.5 -55.501s-4.66699 -35.666 -9 -51.999s-10.333 -32 -18 -47s-17.834 -28.833 -30.501 -41.5c-17.333 -17.333 -37.666 -31 -60.999 -41s-50 -15 -80 -15s-56.667 5 -80 15s-43.666 23.667 -60.999 41
c-24.667 25.333 -40.834 54.833 -48.501 88.5s-11.5 69.5 -11.5 107.5s3.83301 73.833 11.5 107.5s23.834 63.167 48.501 88.5c17.333 17.333 37.666 31 60.999 41s50 15 80 15s56.667 -5 80 -15s43.666 -23.667 60.999 -41c12.667 -12.667 22.834 -26.5 30.501 -41.5
s13.667 -30.667 18 -47s7.33301 -33.5 9 -51.5s2.5 -36.667 2.5 -56zM394 245.999c0 14 -0.333008 28 -1 42s-2.33398 27.667 -5.00098 41s-6.5 26 -11.5 38s-12.167 22.333 -21.5 31c-24 24 -54 36 -90 36c-35.333 0 -65 -12 -89 -36
c-8.66699 -8.66699 -15.667 -19 -21 -31s-9.5 -24.667 -12.5 -38s-4.83301 -27 -5.5 -41s-1 -28 -1 -42s0.333008 -28 1 -42s2.5 -27.667 5.5 -41s7.16699 -25.833 12.5 -37.5s12.333 -22.167 21 -31.5c24 -24 53.667 -36 89 -36c36 0 66 12 90 36
c9.33301 9.33301 16.5 19.833 21.5 31.5s8.83301 24.167 11.5 37.5s4.33398 27 5.00098 41s1 28 1 42zM424 593.999h-69l-90 104l-90 -104h-69l125 153h68l125 -153v0z" />
  </font>
</defs>
</svg>
